%TF.GenerationSoftware,KiCad,Pcbnew,(6.0.5)*%
%TF.CreationDate,2022-08-25T10:54:44+07:00*%
%TF.ProjectId,test1,74657374-312e-46b6-9963-61645f706362,rev?*%
%TF.SameCoordinates,Original*%
%TF.FileFunction,Copper,L2,Bot*%
%TF.FilePolarity,Positive*%
%FSLAX46Y46*%
G04 Gerber Fmt 4.6, Leading zero omitted, Abs format (unit mm)*
G04 Created by KiCad (PCBNEW (6.0.5)) date 2022-08-25 10:54:44*
%MOMM*%
%LPD*%
G01*
G04 APERTURE LIST*
%TA.AperFunction,ComponentPad*%
%ADD10R,1.700000X1.700000*%
%TD*%
%TA.AperFunction,ComponentPad*%
%ADD11O,3.000000X2.000000*%
%TD*%
%TA.AperFunction,ComponentPad*%
%ADD12O,2.000000X3.000000*%
%TD*%
%TA.AperFunction,ComponentPad*%
%ADD13C,2.000000*%
%TD*%
%TA.AperFunction,ComponentPad*%
%ADD14O,1.700000X1.700000*%
%TD*%
G04 APERTURE END LIST*
D10*
%TO.P,REF\u002A\u002A,1*%
%TO.N,N/C*%
X203012494Y-63516494D03*
D11*
%TO.P,REF\u002A\u002A,2*%
X203012494Y-66056494D03*
%TO.P,REF\u002A\u002A,3*%
X203012494Y-68596494D03*
%TO.P,REF\u002A\u002A,4*%
X203012494Y-71136494D03*
%TO.P,REF\u002A\u002A,5*%
X203012494Y-73676494D03*
%TO.P,REF\u002A\u002A,6*%
X203012494Y-76216494D03*
%TO.P,REF\u002A\u002A,7*%
X203012494Y-78756494D03*
%TO.P,REF\u002A\u002A,8*%
%TO.N,3v3*%
X203012494Y-81296494D03*
%TD*%
D12*
%TO.P,U1,1,VCC*%
%TO.N,3v3*%
X204892494Y-53991494D03*
%TO.P,U1,2,GND*%
%TO.N,GND*%
X207432494Y-53991494D03*
%TO.P,U1,3,SCL*%
%TO.N,Net-(U1-Pad3)*%
X209972494Y-53991494D03*
%TO.P,U1,4,SDA*%
%TO.N,Net-(U1-Pad4)*%
X212512494Y-53991494D03*
%TO.P,U1,5,XDA*%
%TO.N,unconnected-(U1-Pad5)*%
X215052494Y-53991494D03*
%TO.P,U1,6,XCL*%
%TO.N,unconnected-(U1-Pad6)*%
X217592494Y-53991494D03*
%TO.P,U1,7,ADD*%
%TO.N,unconnected-(U1-Pad7)*%
X220132494Y-53991494D03*
%TO.P,U1,8,INT*%
%TO.N,unconnected-(U1-Pad8)*%
X222672494Y-53991494D03*
%TD*%
%TO.P,U1,1,VCC*%
%TO.N,3v3*%
X203861494Y-133010494D03*
%TO.P,U1,2,GND*%
%TO.N,GND*%
X206401494Y-133010494D03*
%TO.P,U1,3,SCL*%
%TO.N,Net-(U1-Pad3)*%
X208941494Y-133010494D03*
%TO.P,U1,4,SDA*%
%TO.N,Net-(U1-Pad4)*%
X211481494Y-133010494D03*
%TO.P,U1,5,XDA*%
%TO.N,unconnected-(U1-Pad5)*%
X214021494Y-133010494D03*
%TO.P,U1,6,XCL*%
%TO.N,unconnected-(U1-Pad6)*%
X216561494Y-133010494D03*
%TO.P,U1,7,ADD*%
%TO.N,unconnected-(U1-Pad7)*%
X219101494Y-133010494D03*
%TO.P,U1,8,INT*%
%TO.N,unconnected-(U1-Pad8)*%
X221641494Y-133010494D03*
%TD*%
D10*
%TO.P,REF\u002A\u002A,1*%
%TO.N,N/C*%
X231689494Y-142256494D03*
D12*
%TO.P,REF\u002A\u002A,2*%
X234229494Y-142256494D03*
%TO.P,REF\u002A\u002A,3*%
X236769494Y-142256494D03*
%TO.P,REF\u002A\u002A,4*%
X239309494Y-142256494D03*
%TO.P,REF\u002A\u002A,5*%
X241849494Y-142256494D03*
%TO.P,REF\u002A\u002A,6*%
X244389494Y-142256494D03*
%TO.P,REF\u002A\u002A,7*%
%TO.N,GND*%
X246929494Y-142256494D03*
%TO.P,REF\u002A\u002A,8*%
%TO.N,N/C*%
X249469494Y-142256494D03*
%TD*%
D10*
%TO.P,REF\u002A\u002A,1*%
%TO.N,N/C*%
X231689494Y-165116494D03*
D13*
%TO.P,REF\u002A\u002A,2*%
X234229494Y-165116494D03*
D14*
%TO.P,REF\u002A\u002A,3*%
X236769494Y-165116494D03*
%TO.P,REF\u002A\u002A,4*%
X239309494Y-165116494D03*
%TO.P,REF\u002A\u002A,5*%
X241849494Y-165116494D03*
%TO.P,REF\u002A\u002A,6*%
X244389494Y-165116494D03*
%TO.P,REF\u002A\u002A,7*%
X246929494Y-165116494D03*
%TO.P,REF\u002A\u002A,8*%
X249469494Y-165116494D03*
%TD*%
D10*
%TO.P,REF\u002A\u002A,1*%
%TO.N,N/C*%
X224841494Y-142535494D03*
D11*
%TO.P,REF\u002A\u002A,2*%
X224841494Y-145075494D03*
%TO.P,REF\u002A\u002A,3*%
%TO.N,Net-(U1-Pad3)*%
X224841494Y-147615494D03*
%TO.P,REF\u002A\u002A,4*%
%TO.N,Net-(U1-Pad4)*%
X224841494Y-150155494D03*
%TO.P,REF\u002A\u002A,5*%
%TO.N,N/C*%
X224841494Y-152695494D03*
%TO.P,REF\u002A\u002A,6*%
X224841494Y-155235494D03*
%TO.P,REF\u002A\u002A,7*%
%TO.N,GND*%
X224841494Y-157775494D03*
%TO.P,REF\u002A\u002A,8*%
%TO.N,N/C*%
X224841494Y-160315494D03*
%TD*%
D10*
%TO.P,REF\u002A\u002A,1*%
%TO.N,N/C*%
X201981494Y-142535494D03*
D11*
%TO.P,REF\u002A\u002A,2*%
X201981494Y-145075494D03*
%TO.P,REF\u002A\u002A,3*%
X201981494Y-147615494D03*
%TO.P,REF\u002A\u002A,4*%
X201981494Y-150155494D03*
%TO.P,REF\u002A\u002A,5*%
X201981494Y-152695494D03*
%TO.P,REF\u002A\u002A,6*%
X201981494Y-155235494D03*
%TO.P,REF\u002A\u002A,7*%
X201981494Y-157775494D03*
%TO.P,REF\u002A\u002A,8*%
%TO.N,3v3*%
X201981494Y-160315494D03*
%TD*%
D10*
%TO.P,REF\u002A\u002A,1*%
%TO.N,N/C*%
X232720494Y-63237494D03*
D12*
%TO.P,REF\u002A\u002A,2*%
X235260494Y-63237494D03*
%TO.P,REF\u002A\u002A,3*%
X237800494Y-63237494D03*
%TO.P,REF\u002A\u002A,4*%
X240340494Y-63237494D03*
%TO.P,REF\u002A\u002A,5*%
X242880494Y-63237494D03*
%TO.P,REF\u002A\u002A,6*%
X245420494Y-63237494D03*
%TO.P,REF\u002A\u002A,7*%
%TO.N,GND*%
X247960494Y-63237494D03*
%TO.P,REF\u002A\u002A,8*%
%TO.N,N/C*%
X250500494Y-63237494D03*
%TD*%
D10*
%TO.P,REF\u002A\u002A,1*%
%TO.N,N/C*%
X232720494Y-86097494D03*
D13*
%TO.P,REF\u002A\u002A,2*%
X235260494Y-86097494D03*
D14*
%TO.P,REF\u002A\u002A,3*%
X237800494Y-86097494D03*
%TO.P,REF\u002A\u002A,4*%
X240340494Y-86097494D03*
%TO.P,REF\u002A\u002A,5*%
X242880494Y-86097494D03*
%TO.P,REF\u002A\u002A,6*%
X245420494Y-86097494D03*
%TO.P,REF\u002A\u002A,7*%
X247960494Y-86097494D03*
%TO.P,REF\u002A\u002A,8*%
X250500494Y-86097494D03*
%TD*%
D10*
%TO.P,REF\u002A\u002A,1*%
%TO.N,N/C*%
X225872494Y-63516494D03*
D11*
%TO.P,REF\u002A\u002A,2*%
X225872494Y-66056494D03*
%TO.P,REF\u002A\u002A,3*%
%TO.N,Net-(U1-Pad3)*%
X225872494Y-68596494D03*
%TO.P,REF\u002A\u002A,4*%
%TO.N,Net-(U1-Pad4)*%
X225872494Y-71136494D03*
%TO.P,REF\u002A\u002A,5*%
%TO.N,N/C*%
X225872494Y-73676494D03*
%TO.P,REF\u002A\u002A,6*%
X225872494Y-76216494D03*
%TO.P,REF\u002A\u002A,7*%
%TO.N,GND*%
X225872494Y-78756494D03*
%TO.P,REF\u002A\u002A,8*%
%TO.N,N/C*%
X225872494Y-81296494D03*
%TD*%
D10*
%TO.P,REF\u002A\u002A,1*%
%TO.N,N/C*%
X57922000Y-141503000D03*
D11*
%TO.P,REF\u002A\u002A,2*%
X57922000Y-144043000D03*
%TO.P,REF\u002A\u002A,3*%
X57922000Y-146583000D03*
%TO.P,REF\u002A\u002A,4*%
X57922000Y-149123000D03*
%TO.P,REF\u002A\u002A,5*%
X57922000Y-151663000D03*
%TO.P,REF\u002A\u002A,6*%
X57922000Y-154203000D03*
%TO.P,REF\u002A\u002A,7*%
X57922000Y-156743000D03*
%TO.P,REF\u002A\u002A,8*%
%TO.N,3v3*%
X57922000Y-159283000D03*
%TD*%
D12*
%TO.P,U1,1,VCC*%
%TO.N,3v3*%
X59802000Y-131978000D03*
%TO.P,U1,2,GND*%
%TO.N,GND*%
X62342000Y-131978000D03*
%TO.P,U1,3,SCL*%
%TO.N,Net-(U1-Pad3)*%
X64882000Y-131978000D03*
%TO.P,U1,4,SDA*%
%TO.N,Net-(U1-Pad4)*%
X67422000Y-131978000D03*
%TO.P,U1,5,XDA*%
%TO.N,unconnected-(U1-Pad5)*%
X69962000Y-131978000D03*
%TO.P,U1,6,XCL*%
%TO.N,unconnected-(U1-Pad6)*%
X72502000Y-131978000D03*
%TO.P,U1,7,ADD*%
%TO.N,unconnected-(U1-Pad7)*%
X75042000Y-131978000D03*
%TO.P,U1,8,INT*%
%TO.N,unconnected-(U1-Pad8)*%
X77582000Y-131978000D03*
%TD*%
D10*
%TO.P,REF\u002A\u002A,1*%
%TO.N,N/C*%
X87630000Y-141224000D03*
D12*
%TO.P,REF\u002A\u002A,2*%
X90170000Y-141224000D03*
%TO.P,REF\u002A\u002A,3*%
X92710000Y-141224000D03*
%TO.P,REF\u002A\u002A,4*%
X95250000Y-141224000D03*
%TO.P,REF\u002A\u002A,5*%
X97790000Y-141224000D03*
%TO.P,REF\u002A\u002A,6*%
X100330000Y-141224000D03*
%TO.P,REF\u002A\u002A,7*%
%TO.N,GND*%
X102870000Y-141224000D03*
%TO.P,REF\u002A\u002A,8*%
%TO.N,N/C*%
X105410000Y-141224000D03*
%TD*%
D10*
%TO.P,REF\u002A\u002A,1*%
%TO.N,N/C*%
X87630000Y-164084000D03*
D13*
%TO.P,REF\u002A\u002A,2*%
X90170000Y-164084000D03*
D14*
%TO.P,REF\u002A\u002A,3*%
X92710000Y-164084000D03*
%TO.P,REF\u002A\u002A,4*%
X95250000Y-164084000D03*
%TO.P,REF\u002A\u002A,5*%
X97790000Y-164084000D03*
%TO.P,REF\u002A\u002A,6*%
X100330000Y-164084000D03*
%TO.P,REF\u002A\u002A,7*%
X102870000Y-164084000D03*
%TO.P,REF\u002A\u002A,8*%
X105410000Y-164084000D03*
%TD*%
D10*
%TO.P,REF\u002A\u002A,1*%
%TO.N,N/C*%
X80782000Y-141503000D03*
D11*
%TO.P,REF\u002A\u002A,2*%
X80782000Y-144043000D03*
%TO.P,REF\u002A\u002A,3*%
%TO.N,Net-(U1-Pad3)*%
X80782000Y-146583000D03*
%TO.P,REF\u002A\u002A,4*%
%TO.N,Net-(U1-Pad4)*%
X80782000Y-149123000D03*
%TO.P,REF\u002A\u002A,5*%
%TO.N,N/C*%
X80782000Y-151663000D03*
%TO.P,REF\u002A\u002A,6*%
X80782000Y-154203000D03*
%TO.P,REF\u002A\u002A,7*%
%TO.N,GND*%
X80782000Y-156743000D03*
%TO.P,REF\u002A\u002A,8*%
%TO.N,N/C*%
X80782000Y-159283000D03*
%TD*%
D14*
%TO.P,REF\u002A\u002A,8*%
%TO.N,N/C*%
X106441000Y-85065000D03*
%TO.P,REF\u002A\u002A,7*%
X103901000Y-85065000D03*
%TO.P,REF\u002A\u002A,6*%
X101361000Y-85065000D03*
%TO.P,REF\u002A\u002A,5*%
X98821000Y-85065000D03*
%TO.P,REF\u002A\u002A,4*%
X96281000Y-85065000D03*
%TO.P,REF\u002A\u002A,3*%
X93741000Y-85065000D03*
D13*
%TO.P,REF\u002A\u002A,2*%
X91201000Y-85065000D03*
D10*
%TO.P,REF\u002A\u002A,1*%
X88661000Y-85065000D03*
%TD*%
D12*
%TO.P,REF\u002A\u002A,8*%
%TO.N,N/C*%
X106441000Y-62205000D03*
%TO.P,REF\u002A\u002A,7*%
%TO.N,GND*%
X103901000Y-62205000D03*
%TO.P,REF\u002A\u002A,6*%
%TO.N,N/C*%
X101361000Y-62205000D03*
%TO.P,REF\u002A\u002A,5*%
X98821000Y-62205000D03*
%TO.P,REF\u002A\u002A,4*%
X96281000Y-62205000D03*
%TO.P,REF\u002A\u002A,3*%
X93741000Y-62205000D03*
%TO.P,REF\u002A\u002A,2*%
X91201000Y-62205000D03*
D10*
%TO.P,REF\u002A\u002A,1*%
X88661000Y-62205000D03*
%TD*%
%TO.P,REF\u002A\u002A,1*%
%TO.N,N/C*%
X81813000Y-62484000D03*
D11*
%TO.P,REF\u002A\u002A,2*%
X81813000Y-65024000D03*
%TO.P,REF\u002A\u002A,3*%
%TO.N,Net-(U1-Pad3)*%
X81813000Y-67564000D03*
%TO.P,REF\u002A\u002A,4*%
%TO.N,Net-(U1-Pad4)*%
X81813000Y-70104000D03*
%TO.P,REF\u002A\u002A,5*%
%TO.N,N/C*%
X81813000Y-72644000D03*
%TO.P,REF\u002A\u002A,6*%
X81813000Y-75184000D03*
%TO.P,REF\u002A\u002A,7*%
%TO.N,GND*%
X81813000Y-77724000D03*
%TO.P,REF\u002A\u002A,8*%
%TO.N,N/C*%
X81813000Y-80264000D03*
%TD*%
D10*
%TO.P,REF\u002A\u002A,1*%
%TO.N,N/C*%
X58953000Y-62484000D03*
D11*
%TO.P,REF\u002A\u002A,2*%
X58953000Y-65024000D03*
%TO.P,REF\u002A\u002A,3*%
X58953000Y-67564000D03*
%TO.P,REF\u002A\u002A,4*%
X58953000Y-70104000D03*
%TO.P,REF\u002A\u002A,5*%
X58953000Y-72644000D03*
%TO.P,REF\u002A\u002A,6*%
X58953000Y-75184000D03*
%TO.P,REF\u002A\u002A,7*%
X58953000Y-77724000D03*
%TO.P,REF\u002A\u002A,8*%
%TO.N,3v3*%
X58953000Y-80264000D03*
%TD*%
D12*
%TO.P,U1,1,VCC*%
%TO.N,3v3*%
X60833000Y-52959000D03*
%TO.P,U1,2,GND*%
%TO.N,GND*%
X63373000Y-52959000D03*
%TO.P,U1,3,SCL*%
%TO.N,Net-(U1-Pad3)*%
X65913000Y-52959000D03*
%TO.P,U1,4,SDA*%
%TO.N,Net-(U1-Pad4)*%
X68453000Y-52959000D03*
%TO.P,U1,5,XDA*%
%TO.N,unconnected-(U1-Pad5)*%
X70993000Y-52959000D03*
%TO.P,U1,6,XCL*%
%TO.N,unconnected-(U1-Pad6)*%
X73533000Y-52959000D03*
%TO.P,U1,7,ADD*%
%TO.N,unconnected-(U1-Pad7)*%
X76073000Y-52959000D03*
%TO.P,U1,8,INT*%
%TO.N,unconnected-(U1-Pad8)*%
X78613000Y-52959000D03*
%TD*%
M02*
