%TF.GenerationSoftware,KiCad,Pcbnew,(6.0.5)*%
%TF.CreationDate,2022-08-25T10:54:44+07:00*%
%TF.ProjectId,test1,74657374-312e-46b6-9963-61645f706362,rev?*%
%TF.SameCoordinates,Original*%
%TF.FileFunction,Copper,L1,Top*%
%TF.FilePolarity,Positive*%
%FSLAX46Y46*%
G04 Gerber Fmt 4.6, Leading zero omitted, Abs format (unit mm)*
G04 Created by KiCad (PCBNEW (6.0.5)) date 2022-08-25 10:54:44*
%MOMM*%
%LPD*%
G01*
G04 APERTURE LIST*
%TA.AperFunction,ComponentPad*%
%ADD10R,1.700000X1.700000*%
%TD*%
%TA.AperFunction,ComponentPad*%
%ADD11O,3.000000X2.000000*%
%TD*%
%TA.AperFunction,ComponentPad*%
%ADD12O,2.000000X3.000000*%
%TD*%
%TA.AperFunction,ComponentPad*%
%ADD13C,2.000000*%
%TD*%
%TA.AperFunction,ComponentPad*%
%ADD14O,1.700000X1.700000*%
%TD*%
%TA.AperFunction,Conductor*%
%ADD15C,1.000000*%
%TD*%
G04 APERTURE END LIST*
D10*
%TO.P,REF\u002A\u002A,1*%
%TO.N,N/C*%
X203012494Y-63516494D03*
D11*
%TO.P,REF\u002A\u002A,2*%
X203012494Y-66056494D03*
%TO.P,REF\u002A\u002A,3*%
X203012494Y-68596494D03*
%TO.P,REF\u002A\u002A,4*%
X203012494Y-71136494D03*
%TO.P,REF\u002A\u002A,5*%
X203012494Y-73676494D03*
%TO.P,REF\u002A\u002A,6*%
X203012494Y-76216494D03*
%TO.P,REF\u002A\u002A,7*%
X203012494Y-78756494D03*
%TO.P,REF\u002A\u002A,8*%
%TO.N,3v3*%
X203012494Y-81296494D03*
%TD*%
D12*
%TO.P,U1,1,VCC*%
%TO.N,3v3*%
X204892494Y-53991494D03*
%TO.P,U1,2,GND*%
%TO.N,GND*%
X207432494Y-53991494D03*
%TO.P,U1,3,SCL*%
%TO.N,Net-(U1-Pad3)*%
X209972494Y-53991494D03*
%TO.P,U1,4,SDA*%
%TO.N,Net-(U1-Pad4)*%
X212512494Y-53991494D03*
%TO.P,U1,5,XDA*%
%TO.N,unconnected-(U1-Pad5)*%
X215052494Y-53991494D03*
%TO.P,U1,6,XCL*%
%TO.N,unconnected-(U1-Pad6)*%
X217592494Y-53991494D03*
%TO.P,U1,7,ADD*%
%TO.N,unconnected-(U1-Pad7)*%
X220132494Y-53991494D03*
%TO.P,U1,8,INT*%
%TO.N,unconnected-(U1-Pad8)*%
X222672494Y-53991494D03*
%TD*%
%TO.P,U1,1,VCC*%
%TO.N,3v3*%
X203861494Y-133010494D03*
%TO.P,U1,2,GND*%
%TO.N,GND*%
X206401494Y-133010494D03*
%TO.P,U1,3,SCL*%
%TO.N,Net-(U1-Pad3)*%
X208941494Y-133010494D03*
%TO.P,U1,4,SDA*%
%TO.N,Net-(U1-Pad4)*%
X211481494Y-133010494D03*
%TO.P,U1,5,XDA*%
%TO.N,unconnected-(U1-Pad5)*%
X214021494Y-133010494D03*
%TO.P,U1,6,XCL*%
%TO.N,unconnected-(U1-Pad6)*%
X216561494Y-133010494D03*
%TO.P,U1,7,ADD*%
%TO.N,unconnected-(U1-Pad7)*%
X219101494Y-133010494D03*
%TO.P,U1,8,INT*%
%TO.N,unconnected-(U1-Pad8)*%
X221641494Y-133010494D03*
%TD*%
D10*
%TO.P,REF\u002A\u002A,1*%
%TO.N,N/C*%
X231689494Y-142256494D03*
D12*
%TO.P,REF\u002A\u002A,2*%
X234229494Y-142256494D03*
%TO.P,REF\u002A\u002A,3*%
X236769494Y-142256494D03*
%TO.P,REF\u002A\u002A,4*%
X239309494Y-142256494D03*
%TO.P,REF\u002A\u002A,5*%
X241849494Y-142256494D03*
%TO.P,REF\u002A\u002A,6*%
X244389494Y-142256494D03*
%TO.P,REF\u002A\u002A,7*%
%TO.N,GND*%
X246929494Y-142256494D03*
%TO.P,REF\u002A\u002A,8*%
%TO.N,N/C*%
X249469494Y-142256494D03*
%TD*%
D10*
%TO.P,REF\u002A\u002A,1*%
%TO.N,N/C*%
X231689494Y-165116494D03*
D13*
%TO.P,REF\u002A\u002A,2*%
X234229494Y-165116494D03*
D14*
%TO.P,REF\u002A\u002A,3*%
X236769494Y-165116494D03*
%TO.P,REF\u002A\u002A,4*%
X239309494Y-165116494D03*
%TO.P,REF\u002A\u002A,5*%
X241849494Y-165116494D03*
%TO.P,REF\u002A\u002A,6*%
X244389494Y-165116494D03*
%TO.P,REF\u002A\u002A,7*%
X246929494Y-165116494D03*
%TO.P,REF\u002A\u002A,8*%
X249469494Y-165116494D03*
%TD*%
D10*
%TO.P,REF\u002A\u002A,1*%
%TO.N,N/C*%
X224841494Y-142535494D03*
D11*
%TO.P,REF\u002A\u002A,2*%
X224841494Y-145075494D03*
%TO.P,REF\u002A\u002A,3*%
%TO.N,Net-(U1-Pad3)*%
X224841494Y-147615494D03*
%TO.P,REF\u002A\u002A,4*%
%TO.N,Net-(U1-Pad4)*%
X224841494Y-150155494D03*
%TO.P,REF\u002A\u002A,5*%
%TO.N,N/C*%
X224841494Y-152695494D03*
%TO.P,REF\u002A\u002A,6*%
X224841494Y-155235494D03*
%TO.P,REF\u002A\u002A,7*%
%TO.N,GND*%
X224841494Y-157775494D03*
%TO.P,REF\u002A\u002A,8*%
%TO.N,N/C*%
X224841494Y-160315494D03*
%TD*%
D10*
%TO.P,REF\u002A\u002A,1*%
%TO.N,N/C*%
X201981494Y-142535494D03*
D11*
%TO.P,REF\u002A\u002A,2*%
X201981494Y-145075494D03*
%TO.P,REF\u002A\u002A,3*%
X201981494Y-147615494D03*
%TO.P,REF\u002A\u002A,4*%
X201981494Y-150155494D03*
%TO.P,REF\u002A\u002A,5*%
X201981494Y-152695494D03*
%TO.P,REF\u002A\u002A,6*%
X201981494Y-155235494D03*
%TO.P,REF\u002A\u002A,7*%
X201981494Y-157775494D03*
%TO.P,REF\u002A\u002A,8*%
%TO.N,3v3*%
X201981494Y-160315494D03*
%TD*%
D10*
%TO.P,REF\u002A\u002A,1*%
%TO.N,N/C*%
X232720494Y-63237494D03*
D12*
%TO.P,REF\u002A\u002A,2*%
X235260494Y-63237494D03*
%TO.P,REF\u002A\u002A,3*%
X237800494Y-63237494D03*
%TO.P,REF\u002A\u002A,4*%
X240340494Y-63237494D03*
%TO.P,REF\u002A\u002A,5*%
X242880494Y-63237494D03*
%TO.P,REF\u002A\u002A,6*%
X245420494Y-63237494D03*
%TO.P,REF\u002A\u002A,7*%
%TO.N,GND*%
X247960494Y-63237494D03*
%TO.P,REF\u002A\u002A,8*%
%TO.N,N/C*%
X250500494Y-63237494D03*
%TD*%
D10*
%TO.P,REF\u002A\u002A,1*%
%TO.N,N/C*%
X232720494Y-86097494D03*
D13*
%TO.P,REF\u002A\u002A,2*%
X235260494Y-86097494D03*
D14*
%TO.P,REF\u002A\u002A,3*%
X237800494Y-86097494D03*
%TO.P,REF\u002A\u002A,4*%
X240340494Y-86097494D03*
%TO.P,REF\u002A\u002A,5*%
X242880494Y-86097494D03*
%TO.P,REF\u002A\u002A,6*%
X245420494Y-86097494D03*
%TO.P,REF\u002A\u002A,7*%
X247960494Y-86097494D03*
%TO.P,REF\u002A\u002A,8*%
X250500494Y-86097494D03*
%TD*%
D10*
%TO.P,REF\u002A\u002A,1*%
%TO.N,N/C*%
X225872494Y-63516494D03*
D11*
%TO.P,REF\u002A\u002A,2*%
X225872494Y-66056494D03*
%TO.P,REF\u002A\u002A,3*%
%TO.N,Net-(U1-Pad3)*%
X225872494Y-68596494D03*
%TO.P,REF\u002A\u002A,4*%
%TO.N,Net-(U1-Pad4)*%
X225872494Y-71136494D03*
%TO.P,REF\u002A\u002A,5*%
%TO.N,N/C*%
X225872494Y-73676494D03*
%TO.P,REF\u002A\u002A,6*%
X225872494Y-76216494D03*
%TO.P,REF\u002A\u002A,7*%
%TO.N,GND*%
X225872494Y-78756494D03*
%TO.P,REF\u002A\u002A,8*%
%TO.N,N/C*%
X225872494Y-81296494D03*
%TD*%
D10*
%TO.P,REF\u002A\u002A,1*%
%TO.N,N/C*%
X57922000Y-141503000D03*
D11*
%TO.P,REF\u002A\u002A,2*%
X57922000Y-144043000D03*
%TO.P,REF\u002A\u002A,3*%
X57922000Y-146583000D03*
%TO.P,REF\u002A\u002A,4*%
X57922000Y-149123000D03*
%TO.P,REF\u002A\u002A,5*%
X57922000Y-151663000D03*
%TO.P,REF\u002A\u002A,6*%
X57922000Y-154203000D03*
%TO.P,REF\u002A\u002A,7*%
X57922000Y-156743000D03*
%TO.P,REF\u002A\u002A,8*%
%TO.N,3v3*%
X57922000Y-159283000D03*
%TD*%
D12*
%TO.P,U1,1,VCC*%
%TO.N,3v3*%
X59802000Y-131978000D03*
%TO.P,U1,2,GND*%
%TO.N,GND*%
X62342000Y-131978000D03*
%TO.P,U1,3,SCL*%
%TO.N,Net-(U1-Pad3)*%
X64882000Y-131978000D03*
%TO.P,U1,4,SDA*%
%TO.N,Net-(U1-Pad4)*%
X67422000Y-131978000D03*
%TO.P,U1,5,XDA*%
%TO.N,unconnected-(U1-Pad5)*%
X69962000Y-131978000D03*
%TO.P,U1,6,XCL*%
%TO.N,unconnected-(U1-Pad6)*%
X72502000Y-131978000D03*
%TO.P,U1,7,ADD*%
%TO.N,unconnected-(U1-Pad7)*%
X75042000Y-131978000D03*
%TO.P,U1,8,INT*%
%TO.N,unconnected-(U1-Pad8)*%
X77582000Y-131978000D03*
%TD*%
D10*
%TO.P,REF\u002A\u002A,1*%
%TO.N,N/C*%
X87630000Y-141224000D03*
D12*
%TO.P,REF\u002A\u002A,2*%
X90170000Y-141224000D03*
%TO.P,REF\u002A\u002A,3*%
X92710000Y-141224000D03*
%TO.P,REF\u002A\u002A,4*%
X95250000Y-141224000D03*
%TO.P,REF\u002A\u002A,5*%
X97790000Y-141224000D03*
%TO.P,REF\u002A\u002A,6*%
X100330000Y-141224000D03*
%TO.P,REF\u002A\u002A,7*%
%TO.N,GND*%
X102870000Y-141224000D03*
%TO.P,REF\u002A\u002A,8*%
%TO.N,N/C*%
X105410000Y-141224000D03*
%TD*%
D10*
%TO.P,REF\u002A\u002A,1*%
%TO.N,N/C*%
X87630000Y-164084000D03*
D13*
%TO.P,REF\u002A\u002A,2*%
X90170000Y-164084000D03*
D14*
%TO.P,REF\u002A\u002A,3*%
X92710000Y-164084000D03*
%TO.P,REF\u002A\u002A,4*%
X95250000Y-164084000D03*
%TO.P,REF\u002A\u002A,5*%
X97790000Y-164084000D03*
%TO.P,REF\u002A\u002A,6*%
X100330000Y-164084000D03*
%TO.P,REF\u002A\u002A,7*%
X102870000Y-164084000D03*
%TO.P,REF\u002A\u002A,8*%
X105410000Y-164084000D03*
%TD*%
D10*
%TO.P,REF\u002A\u002A,1*%
%TO.N,N/C*%
X80782000Y-141503000D03*
D11*
%TO.P,REF\u002A\u002A,2*%
X80782000Y-144043000D03*
%TO.P,REF\u002A\u002A,3*%
%TO.N,Net-(U1-Pad3)*%
X80782000Y-146583000D03*
%TO.P,REF\u002A\u002A,4*%
%TO.N,Net-(U1-Pad4)*%
X80782000Y-149123000D03*
%TO.P,REF\u002A\u002A,5*%
%TO.N,N/C*%
X80782000Y-151663000D03*
%TO.P,REF\u002A\u002A,6*%
X80782000Y-154203000D03*
%TO.P,REF\u002A\u002A,7*%
%TO.N,GND*%
X80782000Y-156743000D03*
%TO.P,REF\u002A\u002A,8*%
%TO.N,N/C*%
X80782000Y-159283000D03*
%TD*%
D14*
%TO.P,REF\u002A\u002A,8*%
%TO.N,N/C*%
X106441000Y-85065000D03*
%TO.P,REF\u002A\u002A,7*%
X103901000Y-85065000D03*
%TO.P,REF\u002A\u002A,6*%
X101361000Y-85065000D03*
%TO.P,REF\u002A\u002A,5*%
X98821000Y-85065000D03*
%TO.P,REF\u002A\u002A,4*%
X96281000Y-85065000D03*
%TO.P,REF\u002A\u002A,3*%
X93741000Y-85065000D03*
D13*
%TO.P,REF\u002A\u002A,2*%
X91201000Y-85065000D03*
D10*
%TO.P,REF\u002A\u002A,1*%
X88661000Y-85065000D03*
%TD*%
D12*
%TO.P,REF\u002A\u002A,8*%
%TO.N,N/C*%
X106441000Y-62205000D03*
%TO.P,REF\u002A\u002A,7*%
%TO.N,GND*%
X103901000Y-62205000D03*
%TO.P,REF\u002A\u002A,6*%
%TO.N,N/C*%
X101361000Y-62205000D03*
%TO.P,REF\u002A\u002A,5*%
X98821000Y-62205000D03*
%TO.P,REF\u002A\u002A,4*%
X96281000Y-62205000D03*
%TO.P,REF\u002A\u002A,3*%
X93741000Y-62205000D03*
%TO.P,REF\u002A\u002A,2*%
X91201000Y-62205000D03*
D10*
%TO.P,REF\u002A\u002A,1*%
X88661000Y-62205000D03*
%TD*%
%TO.P,REF\u002A\u002A,1*%
%TO.N,N/C*%
X81813000Y-62484000D03*
D11*
%TO.P,REF\u002A\u002A,2*%
X81813000Y-65024000D03*
%TO.P,REF\u002A\u002A,3*%
%TO.N,Net-(U1-Pad3)*%
X81813000Y-67564000D03*
%TO.P,REF\u002A\u002A,4*%
%TO.N,Net-(U1-Pad4)*%
X81813000Y-70104000D03*
%TO.P,REF\u002A\u002A,5*%
%TO.N,N/C*%
X81813000Y-72644000D03*
%TO.P,REF\u002A\u002A,6*%
X81813000Y-75184000D03*
%TO.P,REF\u002A\u002A,7*%
%TO.N,GND*%
X81813000Y-77724000D03*
%TO.P,REF\u002A\u002A,8*%
%TO.N,N/C*%
X81813000Y-80264000D03*
%TD*%
D10*
%TO.P,REF\u002A\u002A,1*%
%TO.N,N/C*%
X58953000Y-62484000D03*
D11*
%TO.P,REF\u002A\u002A,2*%
X58953000Y-65024000D03*
%TO.P,REF\u002A\u002A,3*%
X58953000Y-67564000D03*
%TO.P,REF\u002A\u002A,4*%
X58953000Y-70104000D03*
%TO.P,REF\u002A\u002A,5*%
X58953000Y-72644000D03*
%TO.P,REF\u002A\u002A,6*%
X58953000Y-75184000D03*
%TO.P,REF\u002A\u002A,7*%
X58953000Y-77724000D03*
%TO.P,REF\u002A\u002A,8*%
%TO.N,3v3*%
X58953000Y-80264000D03*
%TD*%
D12*
%TO.P,U1,1,VCC*%
%TO.N,3v3*%
X60833000Y-52959000D03*
%TO.P,U1,2,GND*%
%TO.N,GND*%
X63373000Y-52959000D03*
%TO.P,U1,3,SCL*%
%TO.N,Net-(U1-Pad3)*%
X65913000Y-52959000D03*
%TO.P,U1,4,SDA*%
%TO.N,Net-(U1-Pad4)*%
X68453000Y-52959000D03*
%TO.P,U1,5,XDA*%
%TO.N,unconnected-(U1-Pad5)*%
X70993000Y-52959000D03*
%TO.P,U1,6,XCL*%
%TO.N,unconnected-(U1-Pad6)*%
X73533000Y-52959000D03*
%TO.P,U1,7,ADD*%
%TO.N,unconnected-(U1-Pad7)*%
X76073000Y-52959000D03*
%TO.P,U1,8,INT*%
%TO.N,unconnected-(U1-Pad8)*%
X78613000Y-52959000D03*
%TD*%
D15*
%TO.N,*%
X232910494Y-160315494D02*
X224841494Y-160315494D01*
%TO.N,GND*%
X206401494Y-134088124D02*
X206550014Y-134236644D01*
%TO.N,3v3*%
X203861494Y-133010494D02*
X204131005Y-133280005D01*
%TO.N,GND*%
X206550014Y-134236644D02*
X206550014Y-146367014D01*
%TO.N,*%
X249469494Y-143756494D02*
X232910494Y-160315494D01*
%TO.N,3v3*%
X204131005Y-133280005D02*
X204131005Y-158665852D01*
%TO.N,GND*%
X206550014Y-146367014D02*
X217958494Y-157775494D01*
%TO.N,Net-(U1-Pad4)*%
X227356494Y-148842575D02*
X226043575Y-150155494D01*
X226043575Y-150155494D02*
X224841494Y-150155494D01*
X211481494Y-133010494D02*
X211481494Y-134088124D01*
%TO.N,GND*%
X246929494Y-142256494D02*
X246929494Y-143468506D01*
%TO.N,Net-(U1-Pad4)*%
X211481494Y-134088124D02*
X213578864Y-136185494D01*
%TO.N,GND*%
X217958494Y-157775494D02*
X224841494Y-157775494D01*
%TO.N,Net-(U1-Pad4)*%
X222784494Y-136185494D02*
X227356494Y-140757494D01*
%TO.N,Net-(U1-Pad3)*%
X208941494Y-133010494D02*
X208941494Y-145202494D01*
%TO.N,GND*%
X232622506Y-157775494D02*
X224841494Y-157775494D01*
X206401494Y-133010494D02*
X206401494Y-134088124D01*
%TO.N,Net-(U1-Pad3)*%
X211354494Y-147615494D02*
X224841494Y-147615494D01*
%TO.N,GND*%
X246929494Y-143468506D02*
X232622506Y-157775494D01*
%TO.N,*%
X249469494Y-142256494D02*
X249469494Y-143756494D01*
%TO.N,3v3*%
X202481363Y-160315494D02*
X201981494Y-160315494D01*
%TO.N,Net-(U1-Pad4)*%
X227356494Y-140757494D02*
X227356494Y-148842575D01*
%TO.N,3v3*%
X204131005Y-158665852D02*
X202481363Y-160315494D01*
%TO.N,Net-(U1-Pad4)*%
X213578864Y-136185494D02*
X222784494Y-136185494D01*
%TO.N,Net-(U1-Pad3)*%
X208941494Y-145202494D02*
X211354494Y-147615494D01*
%TO.N,GND*%
X247960494Y-63237494D02*
X247960494Y-64449506D01*
%TO.N,*%
X233941494Y-81296494D02*
X225872494Y-81296494D01*
X250500494Y-64737494D02*
X233941494Y-81296494D01*
%TO.N,GND*%
X233653506Y-78756494D02*
X225872494Y-78756494D01*
X247960494Y-64449506D02*
X233653506Y-78756494D01*
%TO.N,*%
X250500494Y-63237494D02*
X250500494Y-64737494D01*
%TO.N,Net-(U1-Pad4)*%
X212512494Y-55069124D02*
X214609864Y-57166494D01*
X227074575Y-71136494D02*
X225872494Y-71136494D01*
X228387494Y-69823575D02*
X227074575Y-71136494D01*
X228387494Y-61738494D02*
X228387494Y-69823575D01*
%TO.N,3v3*%
X205162005Y-79646852D02*
X203512363Y-81296494D01*
%TO.N,Net-(U1-Pad4)*%
X223815494Y-57166494D02*
X228387494Y-61738494D01*
%TO.N,3v3*%
X203512363Y-81296494D02*
X203012494Y-81296494D01*
X204892494Y-53991494D02*
X205162005Y-54261005D01*
%TO.N,Net-(U1-Pad4)*%
X214609864Y-57166494D02*
X223815494Y-57166494D01*
%TO.N,GND*%
X218989494Y-78756494D02*
X225872494Y-78756494D01*
%TO.N,Net-(U1-Pad4)*%
X212512494Y-53991494D02*
X212512494Y-55069124D01*
%TO.N,GND*%
X207581014Y-55217644D02*
X207581014Y-67348014D01*
X207581014Y-67348014D02*
X218989494Y-78756494D01*
X207432494Y-53991494D02*
X207432494Y-55069124D01*
%TO.N,3v3*%
X205162005Y-54261005D02*
X205162005Y-79646852D01*
%TO.N,GND*%
X207432494Y-55069124D02*
X207581014Y-55217644D01*
%TO.N,Net-(U1-Pad3)*%
X212385494Y-68596494D02*
X225872494Y-68596494D01*
X209972494Y-66183494D02*
X212385494Y-68596494D01*
X209972494Y-53991494D02*
X209972494Y-66183494D01*
%TO.N,GND*%
X102870000Y-141224000D02*
X102870000Y-142436012D01*
%TO.N,*%
X88851000Y-159283000D02*
X80782000Y-159283000D01*
X105410000Y-142724000D02*
X88851000Y-159283000D01*
%TO.N,GND*%
X88563012Y-156743000D02*
X80782000Y-156743000D01*
X102870000Y-142436012D02*
X88563012Y-156743000D01*
%TO.N,*%
X105410000Y-141224000D02*
X105410000Y-142724000D01*
%TO.N,Net-(U1-Pad4)*%
X67422000Y-133055630D02*
X69519370Y-135153000D01*
X81984081Y-149123000D02*
X80782000Y-149123000D01*
X83297000Y-147810081D02*
X81984081Y-149123000D01*
X83297000Y-139725000D02*
X83297000Y-147810081D01*
%TO.N,3v3*%
X60071511Y-157633358D02*
X58421869Y-159283000D01*
%TO.N,Net-(U1-Pad4)*%
X78725000Y-135153000D02*
X83297000Y-139725000D01*
%TO.N,3v3*%
X58421869Y-159283000D02*
X57922000Y-159283000D01*
X59802000Y-131978000D02*
X60071511Y-132247511D01*
%TO.N,Net-(U1-Pad4)*%
X69519370Y-135153000D02*
X78725000Y-135153000D01*
%TO.N,GND*%
X73899000Y-156743000D02*
X80782000Y-156743000D01*
%TO.N,Net-(U1-Pad4)*%
X67422000Y-131978000D02*
X67422000Y-133055630D01*
%TO.N,GND*%
X62490520Y-133204150D02*
X62490520Y-145334520D01*
X62490520Y-145334520D02*
X73899000Y-156743000D01*
X62342000Y-131978000D02*
X62342000Y-133055630D01*
%TO.N,3v3*%
X60071511Y-132247511D02*
X60071511Y-157633358D01*
%TO.N,GND*%
X62342000Y-133055630D02*
X62490520Y-133204150D01*
%TO.N,Net-(U1-Pad3)*%
X67295000Y-146583000D02*
X80782000Y-146583000D01*
X64882000Y-144170000D02*
X67295000Y-146583000D01*
X64882000Y-131978000D02*
X64882000Y-144170000D01*
%TO.N,GND*%
X89594012Y-77724000D02*
X81813000Y-77724000D01*
X103901000Y-63417012D02*
X89594012Y-77724000D01*
X103901000Y-62205000D02*
X103901000Y-63417012D01*
%TO.N,*%
X89882000Y-80264000D02*
X81813000Y-80264000D01*
X106441000Y-63705000D02*
X89882000Y-80264000D01*
X106441000Y-62205000D02*
X106441000Y-63705000D01*
%TO.N,3v3*%
X61102511Y-78614358D02*
X59452869Y-80264000D01*
X60833000Y-52959000D02*
X61102511Y-53228511D01*
X61102511Y-53228511D02*
X61102511Y-78614358D01*
X59452869Y-80264000D02*
X58953000Y-80264000D01*
%TO.N,Net-(U1-Pad4)*%
X83015081Y-70104000D02*
X81813000Y-70104000D01*
X84328000Y-68791081D02*
X83015081Y-70104000D01*
X84328000Y-60706000D02*
X84328000Y-68791081D01*
X79756000Y-56134000D02*
X84328000Y-60706000D01*
X68453000Y-54036630D02*
X70550370Y-56134000D01*
X68453000Y-52959000D02*
X68453000Y-54036630D01*
X70550370Y-56134000D02*
X79756000Y-56134000D01*
%TO.N,GND*%
X74930000Y-77724000D02*
X81813000Y-77724000D01*
X63521520Y-54185150D02*
X63521520Y-66315520D01*
X63521520Y-66315520D02*
X74930000Y-77724000D01*
X63373000Y-52959000D02*
X63373000Y-54036630D01*
X63373000Y-54036630D02*
X63521520Y-54185150D01*
%TO.N,Net-(U1-Pad3)*%
X65913000Y-65151000D02*
X68326000Y-67564000D01*
X68326000Y-67564000D02*
X81813000Y-67564000D01*
X65913000Y-52959000D02*
X65913000Y-65151000D01*
%TD*%
M02*
