%TF.GenerationSoftware,KiCad,Pcbnew,(6.0.5)*%
%TF.CreationDate,2022-08-25T10:54:44+07:00*%
%TF.ProjectId,test1,74657374-312e-46b6-9963-61645f706362,rev?*%
%TF.SameCoordinates,Original*%
%TF.FileFunction,Legend,Top*%
%TF.FilePolarity,Positive*%
%FSLAX46Y46*%
G04 Gerber Fmt 4.6, Leading zero omitted, Abs format (unit mm)*
G04 Created by KiCad (PCBNEW (6.0.5)) date 2022-08-25 10:54:44*
%MOMM*%
%LPD*%
G01*
G04 APERTURE LIST*
%ADD10C,0.150000*%
%ADD11C,0.120000*%
G04 APERTURE END LIST*
D10*
%TO.C,REF\u002A\u002A*%
X201679160Y-61198874D02*
X201345827Y-60722684D01*
X201107732Y-61198874D02*
X201107732Y-60198874D01*
X201488684Y-60198874D01*
X201583922Y-60246494D01*
X201631541Y-60294113D01*
X201679160Y-60389351D01*
X201679160Y-60532208D01*
X201631541Y-60627446D01*
X201583922Y-60675065D01*
X201488684Y-60722684D01*
X201107732Y-60722684D01*
X202107732Y-60675065D02*
X202441065Y-60675065D01*
X202583922Y-61198874D02*
X202107732Y-61198874D01*
X202107732Y-60198874D01*
X202583922Y-60198874D01*
X203345827Y-60675065D02*
X203012494Y-60675065D01*
X203012494Y-61198874D02*
X203012494Y-60198874D01*
X203488684Y-60198874D01*
X204012494Y-60198874D02*
X204012494Y-60436970D01*
X203774398Y-60341732D02*
X204012494Y-60436970D01*
X204250589Y-60341732D01*
X203869636Y-60627446D02*
X204012494Y-60436970D01*
X204155351Y-60627446D01*
X204774398Y-60198874D02*
X204774398Y-60436970D01*
X204536303Y-60341732D02*
X204774398Y-60436970D01*
X205012494Y-60341732D01*
X204631541Y-60627446D02*
X204774398Y-60436970D01*
X204917255Y-60627446D01*
%TO.C,U1*%
X201804874Y-53483398D02*
X202614398Y-53483398D01*
X202709636Y-53435779D01*
X202757255Y-53388160D01*
X202804874Y-53292922D01*
X202804874Y-53102446D01*
X202757255Y-53007208D01*
X202709636Y-52959589D01*
X202614398Y-52911970D01*
X201804874Y-52911970D01*
X202804874Y-51911970D02*
X202804874Y-52483398D01*
X202804874Y-52197684D02*
X201804874Y-52197684D01*
X201947732Y-52292922D01*
X202042970Y-52388160D01*
X202090589Y-52483398D01*
X210377255Y-51371970D02*
X210424874Y-51229113D01*
X210424874Y-50991017D01*
X210377255Y-50895779D01*
X210329636Y-50848160D01*
X210234398Y-50800541D01*
X210139160Y-50800541D01*
X210043922Y-50848160D01*
X209996303Y-50895779D01*
X209948684Y-50991017D01*
X209901065Y-51181494D01*
X209853446Y-51276732D01*
X209805827Y-51324351D01*
X209710589Y-51371970D01*
X209615351Y-51371970D01*
X209520113Y-51324351D01*
X209472494Y-51276732D01*
X209424874Y-51181494D01*
X209424874Y-50943398D01*
X209472494Y-50800541D01*
X210329636Y-49800541D02*
X210377255Y-49848160D01*
X210424874Y-49991017D01*
X210424874Y-50086255D01*
X210377255Y-50229113D01*
X210282017Y-50324351D01*
X210186779Y-50371970D01*
X209996303Y-50419589D01*
X209853446Y-50419589D01*
X209662970Y-50371970D01*
X209567732Y-50324351D01*
X209472494Y-50229113D01*
X209424874Y-50086255D01*
X209424874Y-49991017D01*
X209472494Y-49848160D01*
X209520113Y-49800541D01*
X210424874Y-48895779D02*
X210424874Y-49371970D01*
X209424874Y-49371970D01*
X212917255Y-51395779D02*
X212964874Y-51252922D01*
X212964874Y-51014827D01*
X212917255Y-50919589D01*
X212869636Y-50871970D01*
X212774398Y-50824351D01*
X212679160Y-50824351D01*
X212583922Y-50871970D01*
X212536303Y-50919589D01*
X212488684Y-51014827D01*
X212441065Y-51205303D01*
X212393446Y-51300541D01*
X212345827Y-51348160D01*
X212250589Y-51395779D01*
X212155351Y-51395779D01*
X212060113Y-51348160D01*
X212012494Y-51300541D01*
X211964874Y-51205303D01*
X211964874Y-50967208D01*
X212012494Y-50824351D01*
X212964874Y-50395779D02*
X211964874Y-50395779D01*
X211964874Y-50157684D01*
X212012494Y-50014827D01*
X212107732Y-49919589D01*
X212202970Y-49871970D01*
X212393446Y-49824351D01*
X212536303Y-49824351D01*
X212726779Y-49871970D01*
X212822017Y-49919589D01*
X212917255Y-50014827D01*
X212964874Y-50157684D01*
X212964874Y-50395779D01*
X212679160Y-49443398D02*
X212679160Y-48967208D01*
X212964874Y-49538636D02*
X211964874Y-49205303D01*
X212964874Y-48871970D01*
X204344874Y-51514827D02*
X205344874Y-51181494D01*
X204344874Y-50848160D01*
X205249636Y-49943398D02*
X205297255Y-49991017D01*
X205344874Y-50133874D01*
X205344874Y-50229113D01*
X205297255Y-50371970D01*
X205202017Y-50467208D01*
X205106779Y-50514827D01*
X204916303Y-50562446D01*
X204773446Y-50562446D01*
X204582970Y-50514827D01*
X204487732Y-50467208D01*
X204392494Y-50371970D01*
X204344874Y-50229113D01*
X204344874Y-50133874D01*
X204392494Y-49991017D01*
X204440113Y-49943398D01*
X205249636Y-48943398D02*
X205297255Y-48991017D01*
X205344874Y-49133874D01*
X205344874Y-49229113D01*
X205297255Y-49371970D01*
X205202017Y-49467208D01*
X205106779Y-49514827D01*
X204916303Y-49562446D01*
X204773446Y-49562446D01*
X204582970Y-49514827D01*
X204487732Y-49467208D01*
X204392494Y-49371970D01*
X204344874Y-49229113D01*
X204344874Y-49133874D01*
X204392494Y-48991017D01*
X204440113Y-48943398D01*
X223124874Y-51086255D02*
X222124874Y-51086255D01*
X223124874Y-50610065D02*
X222124874Y-50610065D01*
X223124874Y-50038636D01*
X222124874Y-50038636D01*
X222124874Y-49705303D02*
X222124874Y-49133874D01*
X223124874Y-49419589D02*
X222124874Y-49419589D01*
X214504874Y-51443398D02*
X215504874Y-50776732D01*
X214504874Y-50776732D02*
X215504874Y-51443398D01*
X215504874Y-50395779D02*
X214504874Y-50395779D01*
X214504874Y-50157684D01*
X214552494Y-50014827D01*
X214647732Y-49919589D01*
X214742970Y-49871970D01*
X214933446Y-49824351D01*
X215076303Y-49824351D01*
X215266779Y-49871970D01*
X215362017Y-49919589D01*
X215457255Y-50014827D01*
X215504874Y-50157684D01*
X215504874Y-50395779D01*
X215219160Y-49443398D02*
X215219160Y-48967208D01*
X215504874Y-49538636D02*
X214504874Y-49205303D01*
X215504874Y-48871970D01*
X220299160Y-51419589D02*
X220299160Y-50943398D01*
X220584874Y-51514827D02*
X219584874Y-51181494D01*
X220584874Y-50848160D01*
X220584874Y-50514827D02*
X219584874Y-50514827D01*
X219584874Y-50276732D01*
X219632494Y-50133874D01*
X219727732Y-50038636D01*
X219822970Y-49991017D01*
X220013446Y-49943398D01*
X220156303Y-49943398D01*
X220346779Y-49991017D01*
X220442017Y-50038636D01*
X220537255Y-50133874D01*
X220584874Y-50276732D01*
X220584874Y-50514827D01*
X220584874Y-49514827D02*
X219584874Y-49514827D01*
X219584874Y-49276732D01*
X219632494Y-49133874D01*
X219727732Y-49038636D01*
X219822970Y-48991017D01*
X220013446Y-48943398D01*
X220156303Y-48943398D01*
X220346779Y-48991017D01*
X220442017Y-49038636D01*
X220537255Y-49133874D01*
X220584874Y-49276732D01*
X220584874Y-49514827D01*
X206932494Y-50943398D02*
X206884874Y-51038636D01*
X206884874Y-51181494D01*
X206932494Y-51324351D01*
X207027732Y-51419589D01*
X207122970Y-51467208D01*
X207313446Y-51514827D01*
X207456303Y-51514827D01*
X207646779Y-51467208D01*
X207742017Y-51419589D01*
X207837255Y-51324351D01*
X207884874Y-51181494D01*
X207884874Y-51086255D01*
X207837255Y-50943398D01*
X207789636Y-50895779D01*
X207456303Y-50895779D01*
X207456303Y-51086255D01*
X207884874Y-50467208D02*
X206884874Y-50467208D01*
X207884874Y-49895779D01*
X206884874Y-49895779D01*
X207884874Y-49419589D02*
X206884874Y-49419589D01*
X206884874Y-49181494D01*
X206932494Y-49038636D01*
X207027732Y-48943398D01*
X207122970Y-48895779D01*
X207313446Y-48848160D01*
X207456303Y-48848160D01*
X207646779Y-48895779D01*
X207742017Y-48943398D01*
X207837255Y-49038636D01*
X207884874Y-49181494D01*
X207884874Y-49419589D01*
X217044874Y-51419589D02*
X218044874Y-50752922D01*
X217044874Y-50752922D02*
X218044874Y-51419589D01*
X217949636Y-49800541D02*
X217997255Y-49848160D01*
X218044874Y-49991017D01*
X218044874Y-50086255D01*
X217997255Y-50229113D01*
X217902017Y-50324351D01*
X217806779Y-50371970D01*
X217616303Y-50419589D01*
X217473446Y-50419589D01*
X217282970Y-50371970D01*
X217187732Y-50324351D01*
X217092494Y-50229113D01*
X217044874Y-50086255D01*
X217044874Y-49991017D01*
X217092494Y-49848160D01*
X217140113Y-49800541D01*
X218044874Y-48895779D02*
X218044874Y-49371970D01*
X217044874Y-49371970D01*
X200773874Y-132502398D02*
X201583398Y-132502398D01*
X201678636Y-132454779D01*
X201726255Y-132407160D01*
X201773874Y-132311922D01*
X201773874Y-132121446D01*
X201726255Y-132026208D01*
X201678636Y-131978589D01*
X201583398Y-131930970D01*
X200773874Y-131930970D01*
X201773874Y-130930970D02*
X201773874Y-131502398D01*
X201773874Y-131216684D02*
X200773874Y-131216684D01*
X200916732Y-131311922D01*
X201011970Y-131407160D01*
X201059589Y-131502398D01*
X209346255Y-130390970D02*
X209393874Y-130248113D01*
X209393874Y-130010017D01*
X209346255Y-129914779D01*
X209298636Y-129867160D01*
X209203398Y-129819541D01*
X209108160Y-129819541D01*
X209012922Y-129867160D01*
X208965303Y-129914779D01*
X208917684Y-130010017D01*
X208870065Y-130200494D01*
X208822446Y-130295732D01*
X208774827Y-130343351D01*
X208679589Y-130390970D01*
X208584351Y-130390970D01*
X208489113Y-130343351D01*
X208441494Y-130295732D01*
X208393874Y-130200494D01*
X208393874Y-129962398D01*
X208441494Y-129819541D01*
X209298636Y-128819541D02*
X209346255Y-128867160D01*
X209393874Y-129010017D01*
X209393874Y-129105255D01*
X209346255Y-129248113D01*
X209251017Y-129343351D01*
X209155779Y-129390970D01*
X208965303Y-129438589D01*
X208822446Y-129438589D01*
X208631970Y-129390970D01*
X208536732Y-129343351D01*
X208441494Y-129248113D01*
X208393874Y-129105255D01*
X208393874Y-129010017D01*
X208441494Y-128867160D01*
X208489113Y-128819541D01*
X209393874Y-127914779D02*
X209393874Y-128390970D01*
X208393874Y-128390970D01*
X211886255Y-130414779D02*
X211933874Y-130271922D01*
X211933874Y-130033827D01*
X211886255Y-129938589D01*
X211838636Y-129890970D01*
X211743398Y-129843351D01*
X211648160Y-129843351D01*
X211552922Y-129890970D01*
X211505303Y-129938589D01*
X211457684Y-130033827D01*
X211410065Y-130224303D01*
X211362446Y-130319541D01*
X211314827Y-130367160D01*
X211219589Y-130414779D01*
X211124351Y-130414779D01*
X211029113Y-130367160D01*
X210981494Y-130319541D01*
X210933874Y-130224303D01*
X210933874Y-129986208D01*
X210981494Y-129843351D01*
X211933874Y-129414779D02*
X210933874Y-129414779D01*
X210933874Y-129176684D01*
X210981494Y-129033827D01*
X211076732Y-128938589D01*
X211171970Y-128890970D01*
X211362446Y-128843351D01*
X211505303Y-128843351D01*
X211695779Y-128890970D01*
X211791017Y-128938589D01*
X211886255Y-129033827D01*
X211933874Y-129176684D01*
X211933874Y-129414779D01*
X211648160Y-128462398D02*
X211648160Y-127986208D01*
X211933874Y-128557636D02*
X210933874Y-128224303D01*
X211933874Y-127890970D01*
X203313874Y-130533827D02*
X204313874Y-130200494D01*
X203313874Y-129867160D01*
X204218636Y-128962398D02*
X204266255Y-129010017D01*
X204313874Y-129152874D01*
X204313874Y-129248113D01*
X204266255Y-129390970D01*
X204171017Y-129486208D01*
X204075779Y-129533827D01*
X203885303Y-129581446D01*
X203742446Y-129581446D01*
X203551970Y-129533827D01*
X203456732Y-129486208D01*
X203361494Y-129390970D01*
X203313874Y-129248113D01*
X203313874Y-129152874D01*
X203361494Y-129010017D01*
X203409113Y-128962398D01*
X204218636Y-127962398D02*
X204266255Y-128010017D01*
X204313874Y-128152874D01*
X204313874Y-128248113D01*
X204266255Y-128390970D01*
X204171017Y-128486208D01*
X204075779Y-128533827D01*
X203885303Y-128581446D01*
X203742446Y-128581446D01*
X203551970Y-128533827D01*
X203456732Y-128486208D01*
X203361494Y-128390970D01*
X203313874Y-128248113D01*
X203313874Y-128152874D01*
X203361494Y-128010017D01*
X203409113Y-127962398D01*
X222093874Y-130105255D02*
X221093874Y-130105255D01*
X222093874Y-129629065D02*
X221093874Y-129629065D01*
X222093874Y-129057636D01*
X221093874Y-129057636D01*
X221093874Y-128724303D02*
X221093874Y-128152874D01*
X222093874Y-128438589D02*
X221093874Y-128438589D01*
X213473874Y-130462398D02*
X214473874Y-129795732D01*
X213473874Y-129795732D02*
X214473874Y-130462398D01*
X214473874Y-129414779D02*
X213473874Y-129414779D01*
X213473874Y-129176684D01*
X213521494Y-129033827D01*
X213616732Y-128938589D01*
X213711970Y-128890970D01*
X213902446Y-128843351D01*
X214045303Y-128843351D01*
X214235779Y-128890970D01*
X214331017Y-128938589D01*
X214426255Y-129033827D01*
X214473874Y-129176684D01*
X214473874Y-129414779D01*
X214188160Y-128462398D02*
X214188160Y-127986208D01*
X214473874Y-128557636D02*
X213473874Y-128224303D01*
X214473874Y-127890970D01*
X219268160Y-130438589D02*
X219268160Y-129962398D01*
X219553874Y-130533827D02*
X218553874Y-130200494D01*
X219553874Y-129867160D01*
X219553874Y-129533827D02*
X218553874Y-129533827D01*
X218553874Y-129295732D01*
X218601494Y-129152874D01*
X218696732Y-129057636D01*
X218791970Y-129010017D01*
X218982446Y-128962398D01*
X219125303Y-128962398D01*
X219315779Y-129010017D01*
X219411017Y-129057636D01*
X219506255Y-129152874D01*
X219553874Y-129295732D01*
X219553874Y-129533827D01*
X219553874Y-128533827D02*
X218553874Y-128533827D01*
X218553874Y-128295732D01*
X218601494Y-128152874D01*
X218696732Y-128057636D01*
X218791970Y-128010017D01*
X218982446Y-127962398D01*
X219125303Y-127962398D01*
X219315779Y-128010017D01*
X219411017Y-128057636D01*
X219506255Y-128152874D01*
X219553874Y-128295732D01*
X219553874Y-128533827D01*
X205901494Y-129962398D02*
X205853874Y-130057636D01*
X205853874Y-130200494D01*
X205901494Y-130343351D01*
X205996732Y-130438589D01*
X206091970Y-130486208D01*
X206282446Y-130533827D01*
X206425303Y-130533827D01*
X206615779Y-130486208D01*
X206711017Y-130438589D01*
X206806255Y-130343351D01*
X206853874Y-130200494D01*
X206853874Y-130105255D01*
X206806255Y-129962398D01*
X206758636Y-129914779D01*
X206425303Y-129914779D01*
X206425303Y-130105255D01*
X206853874Y-129486208D02*
X205853874Y-129486208D01*
X206853874Y-128914779D01*
X205853874Y-128914779D01*
X206853874Y-128438589D02*
X205853874Y-128438589D01*
X205853874Y-128200494D01*
X205901494Y-128057636D01*
X205996732Y-127962398D01*
X206091970Y-127914779D01*
X206282446Y-127867160D01*
X206425303Y-127867160D01*
X206615779Y-127914779D01*
X206711017Y-127962398D01*
X206806255Y-128057636D01*
X206853874Y-128200494D01*
X206853874Y-128438589D01*
X216013874Y-130438589D02*
X217013874Y-129771922D01*
X216013874Y-129771922D02*
X217013874Y-130438589D01*
X216918636Y-128819541D02*
X216966255Y-128867160D01*
X217013874Y-129010017D01*
X217013874Y-129105255D01*
X216966255Y-129248113D01*
X216871017Y-129343351D01*
X216775779Y-129390970D01*
X216585303Y-129438589D01*
X216442446Y-129438589D01*
X216251970Y-129390970D01*
X216156732Y-129343351D01*
X216061494Y-129248113D01*
X216013874Y-129105255D01*
X216013874Y-129010017D01*
X216061494Y-128867160D01*
X216109113Y-128819541D01*
X217013874Y-127914779D02*
X217013874Y-128390970D01*
X216013874Y-128390970D01*
%TO.C,REF\u002A\u002A*%
X229371874Y-143589827D02*
X228895684Y-143923160D01*
X229371874Y-144161255D02*
X228371874Y-144161255D01*
X228371874Y-143780303D01*
X228419494Y-143685065D01*
X228467113Y-143637446D01*
X228562351Y-143589827D01*
X228705208Y-143589827D01*
X228800446Y-143637446D01*
X228848065Y-143685065D01*
X228895684Y-143780303D01*
X228895684Y-144161255D01*
X228848065Y-143161255D02*
X228848065Y-142827922D01*
X229371874Y-142685065D02*
X229371874Y-143161255D01*
X228371874Y-143161255D01*
X228371874Y-142685065D01*
X228848065Y-141923160D02*
X228848065Y-142256494D01*
X229371874Y-142256494D02*
X228371874Y-142256494D01*
X228371874Y-141780303D01*
X228371874Y-141256494D02*
X228609970Y-141256494D01*
X228514732Y-141494589D02*
X228609970Y-141256494D01*
X228514732Y-141018398D01*
X228800446Y-141399351D02*
X228609970Y-141256494D01*
X228800446Y-141113636D01*
X228371874Y-140494589D02*
X228609970Y-140494589D01*
X228514732Y-140732684D02*
X228609970Y-140494589D01*
X228514732Y-140256494D01*
X228800446Y-140637446D02*
X228609970Y-140494589D01*
X228800446Y-140351732D01*
X229371874Y-166449827D02*
X228895684Y-166783160D01*
X229371874Y-167021255D02*
X228371874Y-167021255D01*
X228371874Y-166640303D01*
X228419494Y-166545065D01*
X228467113Y-166497446D01*
X228562351Y-166449827D01*
X228705208Y-166449827D01*
X228800446Y-166497446D01*
X228848065Y-166545065D01*
X228895684Y-166640303D01*
X228895684Y-167021255D01*
X228848065Y-166021255D02*
X228848065Y-165687922D01*
X229371874Y-165545065D02*
X229371874Y-166021255D01*
X228371874Y-166021255D01*
X228371874Y-165545065D01*
X228848065Y-164783160D02*
X228848065Y-165116494D01*
X229371874Y-165116494D02*
X228371874Y-165116494D01*
X228371874Y-164640303D01*
X228371874Y-164116494D02*
X228609970Y-164116494D01*
X228514732Y-164354589D02*
X228609970Y-164116494D01*
X228514732Y-163878398D01*
X228800446Y-164259351D02*
X228609970Y-164116494D01*
X228800446Y-163973636D01*
X228371874Y-163354589D02*
X228609970Y-163354589D01*
X228514732Y-163592684D02*
X228609970Y-163354589D01*
X228514732Y-163116494D01*
X228800446Y-163497446D02*
X228609970Y-163354589D01*
X228800446Y-163211732D01*
X223508160Y-140217874D02*
X223174827Y-139741684D01*
X222936732Y-140217874D02*
X222936732Y-139217874D01*
X223317684Y-139217874D01*
X223412922Y-139265494D01*
X223460541Y-139313113D01*
X223508160Y-139408351D01*
X223508160Y-139551208D01*
X223460541Y-139646446D01*
X223412922Y-139694065D01*
X223317684Y-139741684D01*
X222936732Y-139741684D01*
X223936732Y-139694065D02*
X224270065Y-139694065D01*
X224412922Y-140217874D02*
X223936732Y-140217874D01*
X223936732Y-139217874D01*
X224412922Y-139217874D01*
X225174827Y-139694065D02*
X224841494Y-139694065D01*
X224841494Y-140217874D02*
X224841494Y-139217874D01*
X225317684Y-139217874D01*
X225841494Y-139217874D02*
X225841494Y-139455970D01*
X225603398Y-139360732D02*
X225841494Y-139455970D01*
X226079589Y-139360732D01*
X225698636Y-139646446D02*
X225841494Y-139455970D01*
X225984351Y-139646446D01*
X226603398Y-139217874D02*
X226603398Y-139455970D01*
X226365303Y-139360732D02*
X226603398Y-139455970D01*
X226841494Y-139360732D01*
X226460541Y-139646446D02*
X226603398Y-139455970D01*
X226746255Y-139646446D01*
X200648160Y-140217874D02*
X200314827Y-139741684D01*
X200076732Y-140217874D02*
X200076732Y-139217874D01*
X200457684Y-139217874D01*
X200552922Y-139265494D01*
X200600541Y-139313113D01*
X200648160Y-139408351D01*
X200648160Y-139551208D01*
X200600541Y-139646446D01*
X200552922Y-139694065D01*
X200457684Y-139741684D01*
X200076732Y-139741684D01*
X201076732Y-139694065D02*
X201410065Y-139694065D01*
X201552922Y-140217874D02*
X201076732Y-140217874D01*
X201076732Y-139217874D01*
X201552922Y-139217874D01*
X202314827Y-139694065D02*
X201981494Y-139694065D01*
X201981494Y-140217874D02*
X201981494Y-139217874D01*
X202457684Y-139217874D01*
X202981494Y-139217874D02*
X202981494Y-139455970D01*
X202743398Y-139360732D02*
X202981494Y-139455970D01*
X203219589Y-139360732D01*
X202838636Y-139646446D02*
X202981494Y-139455970D01*
X203124351Y-139646446D01*
X203743398Y-139217874D02*
X203743398Y-139455970D01*
X203505303Y-139360732D02*
X203743398Y-139455970D01*
X203981494Y-139360732D01*
X203600541Y-139646446D02*
X203743398Y-139455970D01*
X203886255Y-139646446D01*
X230402874Y-64570827D02*
X229926684Y-64904160D01*
X230402874Y-65142255D02*
X229402874Y-65142255D01*
X229402874Y-64761303D01*
X229450494Y-64666065D01*
X229498113Y-64618446D01*
X229593351Y-64570827D01*
X229736208Y-64570827D01*
X229831446Y-64618446D01*
X229879065Y-64666065D01*
X229926684Y-64761303D01*
X229926684Y-65142255D01*
X229879065Y-64142255D02*
X229879065Y-63808922D01*
X230402874Y-63666065D02*
X230402874Y-64142255D01*
X229402874Y-64142255D01*
X229402874Y-63666065D01*
X229879065Y-62904160D02*
X229879065Y-63237494D01*
X230402874Y-63237494D02*
X229402874Y-63237494D01*
X229402874Y-62761303D01*
X229402874Y-62237494D02*
X229640970Y-62237494D01*
X229545732Y-62475589D02*
X229640970Y-62237494D01*
X229545732Y-61999398D01*
X229831446Y-62380351D02*
X229640970Y-62237494D01*
X229831446Y-62094636D01*
X229402874Y-61475589D02*
X229640970Y-61475589D01*
X229545732Y-61713684D02*
X229640970Y-61475589D01*
X229545732Y-61237494D01*
X229831446Y-61618446D02*
X229640970Y-61475589D01*
X229831446Y-61332732D01*
X230402874Y-87430827D02*
X229926684Y-87764160D01*
X230402874Y-88002255D02*
X229402874Y-88002255D01*
X229402874Y-87621303D01*
X229450494Y-87526065D01*
X229498113Y-87478446D01*
X229593351Y-87430827D01*
X229736208Y-87430827D01*
X229831446Y-87478446D01*
X229879065Y-87526065D01*
X229926684Y-87621303D01*
X229926684Y-88002255D01*
X229879065Y-87002255D02*
X229879065Y-86668922D01*
X230402874Y-86526065D02*
X230402874Y-87002255D01*
X229402874Y-87002255D01*
X229402874Y-86526065D01*
X229879065Y-85764160D02*
X229879065Y-86097494D01*
X230402874Y-86097494D02*
X229402874Y-86097494D01*
X229402874Y-85621303D01*
X229402874Y-85097494D02*
X229640970Y-85097494D01*
X229545732Y-85335589D02*
X229640970Y-85097494D01*
X229545732Y-84859398D01*
X229831446Y-85240351D02*
X229640970Y-85097494D01*
X229831446Y-84954636D01*
X229402874Y-84335589D02*
X229640970Y-84335589D01*
X229545732Y-84573684D02*
X229640970Y-84335589D01*
X229545732Y-84097494D01*
X229831446Y-84478446D02*
X229640970Y-84335589D01*
X229831446Y-84192732D01*
X224539160Y-61198874D02*
X224205827Y-60722684D01*
X223967732Y-61198874D02*
X223967732Y-60198874D01*
X224348684Y-60198874D01*
X224443922Y-60246494D01*
X224491541Y-60294113D01*
X224539160Y-60389351D01*
X224539160Y-60532208D01*
X224491541Y-60627446D01*
X224443922Y-60675065D01*
X224348684Y-60722684D01*
X223967732Y-60722684D01*
X224967732Y-60675065D02*
X225301065Y-60675065D01*
X225443922Y-61198874D02*
X224967732Y-61198874D01*
X224967732Y-60198874D01*
X225443922Y-60198874D01*
X226205827Y-60675065D02*
X225872494Y-60675065D01*
X225872494Y-61198874D02*
X225872494Y-60198874D01*
X226348684Y-60198874D01*
X226872494Y-60198874D02*
X226872494Y-60436970D01*
X226634398Y-60341732D02*
X226872494Y-60436970D01*
X227110589Y-60341732D01*
X226729636Y-60627446D02*
X226872494Y-60436970D01*
X227015351Y-60627446D01*
X227634398Y-60198874D02*
X227634398Y-60436970D01*
X227396303Y-60341732D02*
X227634398Y-60436970D01*
X227872494Y-60341732D01*
X227491541Y-60627446D02*
X227634398Y-60436970D01*
X227777255Y-60627446D01*
X56588666Y-139185380D02*
X56255333Y-138709190D01*
X56017238Y-139185380D02*
X56017238Y-138185380D01*
X56398190Y-138185380D01*
X56493428Y-138233000D01*
X56541047Y-138280619D01*
X56588666Y-138375857D01*
X56588666Y-138518714D01*
X56541047Y-138613952D01*
X56493428Y-138661571D01*
X56398190Y-138709190D01*
X56017238Y-138709190D01*
X57017238Y-138661571D02*
X57350571Y-138661571D01*
X57493428Y-139185380D02*
X57017238Y-139185380D01*
X57017238Y-138185380D01*
X57493428Y-138185380D01*
X58255333Y-138661571D02*
X57922000Y-138661571D01*
X57922000Y-139185380D02*
X57922000Y-138185380D01*
X58398190Y-138185380D01*
X58922000Y-138185380D02*
X58922000Y-138423476D01*
X58683904Y-138328238D02*
X58922000Y-138423476D01*
X59160095Y-138328238D01*
X58779142Y-138613952D02*
X58922000Y-138423476D01*
X59064857Y-138613952D01*
X59683904Y-138185380D02*
X59683904Y-138423476D01*
X59445809Y-138328238D02*
X59683904Y-138423476D01*
X59922000Y-138328238D01*
X59541047Y-138613952D02*
X59683904Y-138423476D01*
X59826761Y-138613952D01*
%TO.C,U1*%
X56714380Y-131469904D02*
X57523904Y-131469904D01*
X57619142Y-131422285D01*
X57666761Y-131374666D01*
X57714380Y-131279428D01*
X57714380Y-131088952D01*
X57666761Y-130993714D01*
X57619142Y-130946095D01*
X57523904Y-130898476D01*
X56714380Y-130898476D01*
X57714380Y-129898476D02*
X57714380Y-130469904D01*
X57714380Y-130184190D02*
X56714380Y-130184190D01*
X56857238Y-130279428D01*
X56952476Y-130374666D01*
X57000095Y-130469904D01*
X65286761Y-129358476D02*
X65334380Y-129215619D01*
X65334380Y-128977523D01*
X65286761Y-128882285D01*
X65239142Y-128834666D01*
X65143904Y-128787047D01*
X65048666Y-128787047D01*
X64953428Y-128834666D01*
X64905809Y-128882285D01*
X64858190Y-128977523D01*
X64810571Y-129168000D01*
X64762952Y-129263238D01*
X64715333Y-129310857D01*
X64620095Y-129358476D01*
X64524857Y-129358476D01*
X64429619Y-129310857D01*
X64382000Y-129263238D01*
X64334380Y-129168000D01*
X64334380Y-128929904D01*
X64382000Y-128787047D01*
X65239142Y-127787047D02*
X65286761Y-127834666D01*
X65334380Y-127977523D01*
X65334380Y-128072761D01*
X65286761Y-128215619D01*
X65191523Y-128310857D01*
X65096285Y-128358476D01*
X64905809Y-128406095D01*
X64762952Y-128406095D01*
X64572476Y-128358476D01*
X64477238Y-128310857D01*
X64382000Y-128215619D01*
X64334380Y-128072761D01*
X64334380Y-127977523D01*
X64382000Y-127834666D01*
X64429619Y-127787047D01*
X65334380Y-126882285D02*
X65334380Y-127358476D01*
X64334380Y-127358476D01*
X67826761Y-129382285D02*
X67874380Y-129239428D01*
X67874380Y-129001333D01*
X67826761Y-128906095D01*
X67779142Y-128858476D01*
X67683904Y-128810857D01*
X67588666Y-128810857D01*
X67493428Y-128858476D01*
X67445809Y-128906095D01*
X67398190Y-129001333D01*
X67350571Y-129191809D01*
X67302952Y-129287047D01*
X67255333Y-129334666D01*
X67160095Y-129382285D01*
X67064857Y-129382285D01*
X66969619Y-129334666D01*
X66922000Y-129287047D01*
X66874380Y-129191809D01*
X66874380Y-128953714D01*
X66922000Y-128810857D01*
X67874380Y-128382285D02*
X66874380Y-128382285D01*
X66874380Y-128144190D01*
X66922000Y-128001333D01*
X67017238Y-127906095D01*
X67112476Y-127858476D01*
X67302952Y-127810857D01*
X67445809Y-127810857D01*
X67636285Y-127858476D01*
X67731523Y-127906095D01*
X67826761Y-128001333D01*
X67874380Y-128144190D01*
X67874380Y-128382285D01*
X67588666Y-127429904D02*
X67588666Y-126953714D01*
X67874380Y-127525142D02*
X66874380Y-127191809D01*
X67874380Y-126858476D01*
X59254380Y-129501333D02*
X60254380Y-129168000D01*
X59254380Y-128834666D01*
X60159142Y-127929904D02*
X60206761Y-127977523D01*
X60254380Y-128120380D01*
X60254380Y-128215619D01*
X60206761Y-128358476D01*
X60111523Y-128453714D01*
X60016285Y-128501333D01*
X59825809Y-128548952D01*
X59682952Y-128548952D01*
X59492476Y-128501333D01*
X59397238Y-128453714D01*
X59302000Y-128358476D01*
X59254380Y-128215619D01*
X59254380Y-128120380D01*
X59302000Y-127977523D01*
X59349619Y-127929904D01*
X60159142Y-126929904D02*
X60206761Y-126977523D01*
X60254380Y-127120380D01*
X60254380Y-127215619D01*
X60206761Y-127358476D01*
X60111523Y-127453714D01*
X60016285Y-127501333D01*
X59825809Y-127548952D01*
X59682952Y-127548952D01*
X59492476Y-127501333D01*
X59397238Y-127453714D01*
X59302000Y-127358476D01*
X59254380Y-127215619D01*
X59254380Y-127120380D01*
X59302000Y-126977523D01*
X59349619Y-126929904D01*
X78034380Y-129072761D02*
X77034380Y-129072761D01*
X78034380Y-128596571D02*
X77034380Y-128596571D01*
X78034380Y-128025142D01*
X77034380Y-128025142D01*
X77034380Y-127691809D02*
X77034380Y-127120380D01*
X78034380Y-127406095D02*
X77034380Y-127406095D01*
X69414380Y-129429904D02*
X70414380Y-128763238D01*
X69414380Y-128763238D02*
X70414380Y-129429904D01*
X70414380Y-128382285D02*
X69414380Y-128382285D01*
X69414380Y-128144190D01*
X69462000Y-128001333D01*
X69557238Y-127906095D01*
X69652476Y-127858476D01*
X69842952Y-127810857D01*
X69985809Y-127810857D01*
X70176285Y-127858476D01*
X70271523Y-127906095D01*
X70366761Y-128001333D01*
X70414380Y-128144190D01*
X70414380Y-128382285D01*
X70128666Y-127429904D02*
X70128666Y-126953714D01*
X70414380Y-127525142D02*
X69414380Y-127191809D01*
X70414380Y-126858476D01*
X75208666Y-129406095D02*
X75208666Y-128929904D01*
X75494380Y-129501333D02*
X74494380Y-129168000D01*
X75494380Y-128834666D01*
X75494380Y-128501333D02*
X74494380Y-128501333D01*
X74494380Y-128263238D01*
X74542000Y-128120380D01*
X74637238Y-128025142D01*
X74732476Y-127977523D01*
X74922952Y-127929904D01*
X75065809Y-127929904D01*
X75256285Y-127977523D01*
X75351523Y-128025142D01*
X75446761Y-128120380D01*
X75494380Y-128263238D01*
X75494380Y-128501333D01*
X75494380Y-127501333D02*
X74494380Y-127501333D01*
X74494380Y-127263238D01*
X74542000Y-127120380D01*
X74637238Y-127025142D01*
X74732476Y-126977523D01*
X74922952Y-126929904D01*
X75065809Y-126929904D01*
X75256285Y-126977523D01*
X75351523Y-127025142D01*
X75446761Y-127120380D01*
X75494380Y-127263238D01*
X75494380Y-127501333D01*
X61842000Y-128929904D02*
X61794380Y-129025142D01*
X61794380Y-129168000D01*
X61842000Y-129310857D01*
X61937238Y-129406095D01*
X62032476Y-129453714D01*
X62222952Y-129501333D01*
X62365809Y-129501333D01*
X62556285Y-129453714D01*
X62651523Y-129406095D01*
X62746761Y-129310857D01*
X62794380Y-129168000D01*
X62794380Y-129072761D01*
X62746761Y-128929904D01*
X62699142Y-128882285D01*
X62365809Y-128882285D01*
X62365809Y-129072761D01*
X62794380Y-128453714D02*
X61794380Y-128453714D01*
X62794380Y-127882285D01*
X61794380Y-127882285D01*
X62794380Y-127406095D02*
X61794380Y-127406095D01*
X61794380Y-127168000D01*
X61842000Y-127025142D01*
X61937238Y-126929904D01*
X62032476Y-126882285D01*
X62222952Y-126834666D01*
X62365809Y-126834666D01*
X62556285Y-126882285D01*
X62651523Y-126929904D01*
X62746761Y-127025142D01*
X62794380Y-127168000D01*
X62794380Y-127406095D01*
X71954380Y-129406095D02*
X72954380Y-128739428D01*
X71954380Y-128739428D02*
X72954380Y-129406095D01*
X72859142Y-127787047D02*
X72906761Y-127834666D01*
X72954380Y-127977523D01*
X72954380Y-128072761D01*
X72906761Y-128215619D01*
X72811523Y-128310857D01*
X72716285Y-128358476D01*
X72525809Y-128406095D01*
X72382952Y-128406095D01*
X72192476Y-128358476D01*
X72097238Y-128310857D01*
X72002000Y-128215619D01*
X71954380Y-128072761D01*
X71954380Y-127977523D01*
X72002000Y-127834666D01*
X72049619Y-127787047D01*
X72954380Y-126882285D02*
X72954380Y-127358476D01*
X71954380Y-127358476D01*
%TO.C,REF\u002A\u002A*%
X85312380Y-142557333D02*
X84836190Y-142890666D01*
X85312380Y-143128761D02*
X84312380Y-143128761D01*
X84312380Y-142747809D01*
X84360000Y-142652571D01*
X84407619Y-142604952D01*
X84502857Y-142557333D01*
X84645714Y-142557333D01*
X84740952Y-142604952D01*
X84788571Y-142652571D01*
X84836190Y-142747809D01*
X84836190Y-143128761D01*
X84788571Y-142128761D02*
X84788571Y-141795428D01*
X85312380Y-141652571D02*
X85312380Y-142128761D01*
X84312380Y-142128761D01*
X84312380Y-141652571D01*
X84788571Y-140890666D02*
X84788571Y-141224000D01*
X85312380Y-141224000D02*
X84312380Y-141224000D01*
X84312380Y-140747809D01*
X84312380Y-140224000D02*
X84550476Y-140224000D01*
X84455238Y-140462095D02*
X84550476Y-140224000D01*
X84455238Y-139985904D01*
X84740952Y-140366857D02*
X84550476Y-140224000D01*
X84740952Y-140081142D01*
X84312380Y-139462095D02*
X84550476Y-139462095D01*
X84455238Y-139700190D02*
X84550476Y-139462095D01*
X84455238Y-139224000D01*
X84740952Y-139604952D02*
X84550476Y-139462095D01*
X84740952Y-139319238D01*
X85312380Y-165417333D02*
X84836190Y-165750666D01*
X85312380Y-165988761D02*
X84312380Y-165988761D01*
X84312380Y-165607809D01*
X84360000Y-165512571D01*
X84407619Y-165464952D01*
X84502857Y-165417333D01*
X84645714Y-165417333D01*
X84740952Y-165464952D01*
X84788571Y-165512571D01*
X84836190Y-165607809D01*
X84836190Y-165988761D01*
X84788571Y-164988761D02*
X84788571Y-164655428D01*
X85312380Y-164512571D02*
X85312380Y-164988761D01*
X84312380Y-164988761D01*
X84312380Y-164512571D01*
X84788571Y-163750666D02*
X84788571Y-164084000D01*
X85312380Y-164084000D02*
X84312380Y-164084000D01*
X84312380Y-163607809D01*
X84312380Y-163084000D02*
X84550476Y-163084000D01*
X84455238Y-163322095D02*
X84550476Y-163084000D01*
X84455238Y-162845904D01*
X84740952Y-163226857D02*
X84550476Y-163084000D01*
X84740952Y-162941142D01*
X84312380Y-162322095D02*
X84550476Y-162322095D01*
X84455238Y-162560190D02*
X84550476Y-162322095D01*
X84455238Y-162084000D01*
X84740952Y-162464952D02*
X84550476Y-162322095D01*
X84740952Y-162179238D01*
X79448666Y-139185380D02*
X79115333Y-138709190D01*
X78877238Y-139185380D02*
X78877238Y-138185380D01*
X79258190Y-138185380D01*
X79353428Y-138233000D01*
X79401047Y-138280619D01*
X79448666Y-138375857D01*
X79448666Y-138518714D01*
X79401047Y-138613952D01*
X79353428Y-138661571D01*
X79258190Y-138709190D01*
X78877238Y-138709190D01*
X79877238Y-138661571D02*
X80210571Y-138661571D01*
X80353428Y-139185380D02*
X79877238Y-139185380D01*
X79877238Y-138185380D01*
X80353428Y-138185380D01*
X81115333Y-138661571D02*
X80782000Y-138661571D01*
X80782000Y-139185380D02*
X80782000Y-138185380D01*
X81258190Y-138185380D01*
X81782000Y-138185380D02*
X81782000Y-138423476D01*
X81543904Y-138328238D02*
X81782000Y-138423476D01*
X82020095Y-138328238D01*
X81639142Y-138613952D02*
X81782000Y-138423476D01*
X81924857Y-138613952D01*
X82543904Y-138185380D02*
X82543904Y-138423476D01*
X82305809Y-138328238D02*
X82543904Y-138423476D01*
X82782000Y-138328238D01*
X82401047Y-138613952D02*
X82543904Y-138423476D01*
X82686761Y-138613952D01*
X86343380Y-86398333D02*
X85867190Y-86731666D01*
X86343380Y-86969761D02*
X85343380Y-86969761D01*
X85343380Y-86588809D01*
X85391000Y-86493571D01*
X85438619Y-86445952D01*
X85533857Y-86398333D01*
X85676714Y-86398333D01*
X85771952Y-86445952D01*
X85819571Y-86493571D01*
X85867190Y-86588809D01*
X85867190Y-86969761D01*
X85819571Y-85969761D02*
X85819571Y-85636428D01*
X86343380Y-85493571D02*
X86343380Y-85969761D01*
X85343380Y-85969761D01*
X85343380Y-85493571D01*
X85819571Y-84731666D02*
X85819571Y-85065000D01*
X86343380Y-85065000D02*
X85343380Y-85065000D01*
X85343380Y-84588809D01*
X85343380Y-84065000D02*
X85581476Y-84065000D01*
X85486238Y-84303095D02*
X85581476Y-84065000D01*
X85486238Y-83826904D01*
X85771952Y-84207857D02*
X85581476Y-84065000D01*
X85771952Y-83922142D01*
X85343380Y-83303095D02*
X85581476Y-83303095D01*
X85486238Y-83541190D02*
X85581476Y-83303095D01*
X85486238Y-83065000D01*
X85771952Y-83445952D02*
X85581476Y-83303095D01*
X85771952Y-83160238D01*
X86343380Y-63538333D02*
X85867190Y-63871666D01*
X86343380Y-64109761D02*
X85343380Y-64109761D01*
X85343380Y-63728809D01*
X85391000Y-63633571D01*
X85438619Y-63585952D01*
X85533857Y-63538333D01*
X85676714Y-63538333D01*
X85771952Y-63585952D01*
X85819571Y-63633571D01*
X85867190Y-63728809D01*
X85867190Y-64109761D01*
X85819571Y-63109761D02*
X85819571Y-62776428D01*
X86343380Y-62633571D02*
X86343380Y-63109761D01*
X85343380Y-63109761D01*
X85343380Y-62633571D01*
X85819571Y-61871666D02*
X85819571Y-62205000D01*
X86343380Y-62205000D02*
X85343380Y-62205000D01*
X85343380Y-61728809D01*
X85343380Y-61205000D02*
X85581476Y-61205000D01*
X85486238Y-61443095D02*
X85581476Y-61205000D01*
X85486238Y-60966904D01*
X85771952Y-61347857D02*
X85581476Y-61205000D01*
X85771952Y-61062142D01*
X85343380Y-60443095D02*
X85581476Y-60443095D01*
X85486238Y-60681190D02*
X85581476Y-60443095D01*
X85486238Y-60205000D01*
X85771952Y-60585952D02*
X85581476Y-60443095D01*
X85771952Y-60300238D01*
X80479666Y-60166380D02*
X80146333Y-59690190D01*
X79908238Y-60166380D02*
X79908238Y-59166380D01*
X80289190Y-59166380D01*
X80384428Y-59214000D01*
X80432047Y-59261619D01*
X80479666Y-59356857D01*
X80479666Y-59499714D01*
X80432047Y-59594952D01*
X80384428Y-59642571D01*
X80289190Y-59690190D01*
X79908238Y-59690190D01*
X80908238Y-59642571D02*
X81241571Y-59642571D01*
X81384428Y-60166380D02*
X80908238Y-60166380D01*
X80908238Y-59166380D01*
X81384428Y-59166380D01*
X82146333Y-59642571D02*
X81813000Y-59642571D01*
X81813000Y-60166380D02*
X81813000Y-59166380D01*
X82289190Y-59166380D01*
X82813000Y-59166380D02*
X82813000Y-59404476D01*
X82574904Y-59309238D02*
X82813000Y-59404476D01*
X83051095Y-59309238D01*
X82670142Y-59594952D02*
X82813000Y-59404476D01*
X82955857Y-59594952D01*
X83574904Y-59166380D02*
X83574904Y-59404476D01*
X83336809Y-59309238D02*
X83574904Y-59404476D01*
X83813000Y-59309238D01*
X83432047Y-59594952D02*
X83574904Y-59404476D01*
X83717761Y-59594952D01*
X57619666Y-60166380D02*
X57286333Y-59690190D01*
X57048238Y-60166380D02*
X57048238Y-59166380D01*
X57429190Y-59166380D01*
X57524428Y-59214000D01*
X57572047Y-59261619D01*
X57619666Y-59356857D01*
X57619666Y-59499714D01*
X57572047Y-59594952D01*
X57524428Y-59642571D01*
X57429190Y-59690190D01*
X57048238Y-59690190D01*
X58048238Y-59642571D02*
X58381571Y-59642571D01*
X58524428Y-60166380D02*
X58048238Y-60166380D01*
X58048238Y-59166380D01*
X58524428Y-59166380D01*
X59286333Y-59642571D02*
X58953000Y-59642571D01*
X58953000Y-60166380D02*
X58953000Y-59166380D01*
X59429190Y-59166380D01*
X59953000Y-59166380D02*
X59953000Y-59404476D01*
X59714904Y-59309238D02*
X59953000Y-59404476D01*
X60191095Y-59309238D01*
X59810142Y-59594952D02*
X59953000Y-59404476D01*
X60095857Y-59594952D01*
X60714904Y-59166380D02*
X60714904Y-59404476D01*
X60476809Y-59309238D02*
X60714904Y-59404476D01*
X60953000Y-59309238D01*
X60572047Y-59594952D02*
X60714904Y-59404476D01*
X60857761Y-59594952D01*
%TO.C,U1*%
X57745380Y-52450904D02*
X58554904Y-52450904D01*
X58650142Y-52403285D01*
X58697761Y-52355666D01*
X58745380Y-52260428D01*
X58745380Y-52069952D01*
X58697761Y-51974714D01*
X58650142Y-51927095D01*
X58554904Y-51879476D01*
X57745380Y-51879476D01*
X58745380Y-50879476D02*
X58745380Y-51450904D01*
X58745380Y-51165190D02*
X57745380Y-51165190D01*
X57888238Y-51260428D01*
X57983476Y-51355666D01*
X58031095Y-51450904D01*
X66317761Y-50339476D02*
X66365380Y-50196619D01*
X66365380Y-49958523D01*
X66317761Y-49863285D01*
X66270142Y-49815666D01*
X66174904Y-49768047D01*
X66079666Y-49768047D01*
X65984428Y-49815666D01*
X65936809Y-49863285D01*
X65889190Y-49958523D01*
X65841571Y-50149000D01*
X65793952Y-50244238D01*
X65746333Y-50291857D01*
X65651095Y-50339476D01*
X65555857Y-50339476D01*
X65460619Y-50291857D01*
X65413000Y-50244238D01*
X65365380Y-50149000D01*
X65365380Y-49910904D01*
X65413000Y-49768047D01*
X66270142Y-48768047D02*
X66317761Y-48815666D01*
X66365380Y-48958523D01*
X66365380Y-49053761D01*
X66317761Y-49196619D01*
X66222523Y-49291857D01*
X66127285Y-49339476D01*
X65936809Y-49387095D01*
X65793952Y-49387095D01*
X65603476Y-49339476D01*
X65508238Y-49291857D01*
X65413000Y-49196619D01*
X65365380Y-49053761D01*
X65365380Y-48958523D01*
X65413000Y-48815666D01*
X65460619Y-48768047D01*
X66365380Y-47863285D02*
X66365380Y-48339476D01*
X65365380Y-48339476D01*
X68857761Y-50363285D02*
X68905380Y-50220428D01*
X68905380Y-49982333D01*
X68857761Y-49887095D01*
X68810142Y-49839476D01*
X68714904Y-49791857D01*
X68619666Y-49791857D01*
X68524428Y-49839476D01*
X68476809Y-49887095D01*
X68429190Y-49982333D01*
X68381571Y-50172809D01*
X68333952Y-50268047D01*
X68286333Y-50315666D01*
X68191095Y-50363285D01*
X68095857Y-50363285D01*
X68000619Y-50315666D01*
X67953000Y-50268047D01*
X67905380Y-50172809D01*
X67905380Y-49934714D01*
X67953000Y-49791857D01*
X68905380Y-49363285D02*
X67905380Y-49363285D01*
X67905380Y-49125190D01*
X67953000Y-48982333D01*
X68048238Y-48887095D01*
X68143476Y-48839476D01*
X68333952Y-48791857D01*
X68476809Y-48791857D01*
X68667285Y-48839476D01*
X68762523Y-48887095D01*
X68857761Y-48982333D01*
X68905380Y-49125190D01*
X68905380Y-49363285D01*
X68619666Y-48410904D02*
X68619666Y-47934714D01*
X68905380Y-48506142D02*
X67905380Y-48172809D01*
X68905380Y-47839476D01*
X60285380Y-50482333D02*
X61285380Y-50149000D01*
X60285380Y-49815666D01*
X61190142Y-48910904D02*
X61237761Y-48958523D01*
X61285380Y-49101380D01*
X61285380Y-49196619D01*
X61237761Y-49339476D01*
X61142523Y-49434714D01*
X61047285Y-49482333D01*
X60856809Y-49529952D01*
X60713952Y-49529952D01*
X60523476Y-49482333D01*
X60428238Y-49434714D01*
X60333000Y-49339476D01*
X60285380Y-49196619D01*
X60285380Y-49101380D01*
X60333000Y-48958523D01*
X60380619Y-48910904D01*
X61190142Y-47910904D02*
X61237761Y-47958523D01*
X61285380Y-48101380D01*
X61285380Y-48196619D01*
X61237761Y-48339476D01*
X61142523Y-48434714D01*
X61047285Y-48482333D01*
X60856809Y-48529952D01*
X60713952Y-48529952D01*
X60523476Y-48482333D01*
X60428238Y-48434714D01*
X60333000Y-48339476D01*
X60285380Y-48196619D01*
X60285380Y-48101380D01*
X60333000Y-47958523D01*
X60380619Y-47910904D01*
X79065380Y-50053761D02*
X78065380Y-50053761D01*
X79065380Y-49577571D02*
X78065380Y-49577571D01*
X79065380Y-49006142D01*
X78065380Y-49006142D01*
X78065380Y-48672809D02*
X78065380Y-48101380D01*
X79065380Y-48387095D02*
X78065380Y-48387095D01*
X70445380Y-50410904D02*
X71445380Y-49744238D01*
X70445380Y-49744238D02*
X71445380Y-50410904D01*
X71445380Y-49363285D02*
X70445380Y-49363285D01*
X70445380Y-49125190D01*
X70493000Y-48982333D01*
X70588238Y-48887095D01*
X70683476Y-48839476D01*
X70873952Y-48791857D01*
X71016809Y-48791857D01*
X71207285Y-48839476D01*
X71302523Y-48887095D01*
X71397761Y-48982333D01*
X71445380Y-49125190D01*
X71445380Y-49363285D01*
X71159666Y-48410904D02*
X71159666Y-47934714D01*
X71445380Y-48506142D02*
X70445380Y-48172809D01*
X71445380Y-47839476D01*
X76239666Y-50387095D02*
X76239666Y-49910904D01*
X76525380Y-50482333D02*
X75525380Y-50149000D01*
X76525380Y-49815666D01*
X76525380Y-49482333D02*
X75525380Y-49482333D01*
X75525380Y-49244238D01*
X75573000Y-49101380D01*
X75668238Y-49006142D01*
X75763476Y-48958523D01*
X75953952Y-48910904D01*
X76096809Y-48910904D01*
X76287285Y-48958523D01*
X76382523Y-49006142D01*
X76477761Y-49101380D01*
X76525380Y-49244238D01*
X76525380Y-49482333D01*
X76525380Y-48482333D02*
X75525380Y-48482333D01*
X75525380Y-48244238D01*
X75573000Y-48101380D01*
X75668238Y-48006142D01*
X75763476Y-47958523D01*
X75953952Y-47910904D01*
X76096809Y-47910904D01*
X76287285Y-47958523D01*
X76382523Y-48006142D01*
X76477761Y-48101380D01*
X76525380Y-48244238D01*
X76525380Y-48482333D01*
X62873000Y-49910904D02*
X62825380Y-50006142D01*
X62825380Y-50149000D01*
X62873000Y-50291857D01*
X62968238Y-50387095D01*
X63063476Y-50434714D01*
X63253952Y-50482333D01*
X63396809Y-50482333D01*
X63587285Y-50434714D01*
X63682523Y-50387095D01*
X63777761Y-50291857D01*
X63825380Y-50149000D01*
X63825380Y-50053761D01*
X63777761Y-49910904D01*
X63730142Y-49863285D01*
X63396809Y-49863285D01*
X63396809Y-50053761D01*
X63825380Y-49434714D02*
X62825380Y-49434714D01*
X63825380Y-48863285D01*
X62825380Y-48863285D01*
X63825380Y-48387095D02*
X62825380Y-48387095D01*
X62825380Y-48149000D01*
X62873000Y-48006142D01*
X62968238Y-47910904D01*
X63063476Y-47863285D01*
X63253952Y-47815666D01*
X63396809Y-47815666D01*
X63587285Y-47863285D01*
X63682523Y-47910904D01*
X63777761Y-48006142D01*
X63825380Y-48149000D01*
X63825380Y-48387095D01*
X72985380Y-50387095D02*
X73985380Y-49720428D01*
X72985380Y-49720428D02*
X73985380Y-50387095D01*
X73890142Y-48768047D02*
X73937761Y-48815666D01*
X73985380Y-48958523D01*
X73985380Y-49053761D01*
X73937761Y-49196619D01*
X73842523Y-49291857D01*
X73747285Y-49339476D01*
X73556809Y-49387095D01*
X73413952Y-49387095D01*
X73223476Y-49339476D01*
X73128238Y-49291857D01*
X73033000Y-49196619D01*
X72985380Y-49053761D01*
X72985380Y-48958523D01*
X73033000Y-48815666D01*
X73080619Y-48768047D01*
X73985380Y-47863285D02*
X73985380Y-48339476D01*
X72985380Y-48339476D01*
D11*
%TO.C,REF\u002A\u002A*%
X201682494Y-64786494D02*
X204342494Y-64786494D01*
X204342494Y-64786494D02*
X204342494Y-82626494D01*
X201682494Y-64786494D02*
X201682494Y-82626494D01*
X201682494Y-82626494D02*
X204342494Y-82626494D01*
X203012494Y-62186494D02*
X204342494Y-62186494D01*
X204342494Y-62186494D02*
X204342494Y-63516494D01*
%TO.C,U1*%
X203368494Y-38751494D02*
X223942494Y-38751494D01*
X223942494Y-38751494D02*
X223942494Y-55261494D01*
X203368494Y-55261494D02*
X203368494Y-38751494D01*
X223942494Y-55261494D02*
X203368494Y-55261494D01*
X207022326Y-41291494D02*
G75*
G03*
X207022326Y-41291494I-1367832J0D01*
G01*
X223024326Y-41291494D02*
G75*
G03*
X223024326Y-41291494I-1367832J0D01*
G01*
X202337494Y-117770494D02*
X222911494Y-117770494D01*
X222911494Y-117770494D02*
X222911494Y-134280494D01*
X202337494Y-134280494D02*
X202337494Y-117770494D01*
X222911494Y-134280494D02*
X202337494Y-134280494D01*
X205991326Y-120310494D02*
G75*
G03*
X205991326Y-120310494I-1367832J0D01*
G01*
X221993326Y-120310494D02*
G75*
G03*
X221993326Y-120310494I-1367832J0D01*
G01*
%TO.C,REF\u002A\u002A*%
X230359494Y-142256494D02*
X230359494Y-140926494D01*
X232959494Y-143586494D02*
X250799494Y-143586494D01*
X250799494Y-143586494D02*
X250799494Y-140926494D01*
X230359494Y-140926494D02*
X231689494Y-140926494D01*
X232959494Y-140926494D02*
X250799494Y-140926494D01*
X232959494Y-143586494D02*
X232959494Y-140926494D01*
X232959494Y-166446494D02*
X232959494Y-163786494D01*
X232959494Y-163786494D02*
X250799494Y-163786494D01*
X232959494Y-166446494D02*
X250799494Y-166446494D01*
X250799494Y-166446494D02*
X250799494Y-163786494D01*
X230359494Y-165116494D02*
X230359494Y-163786494D01*
X230359494Y-163786494D02*
X231689494Y-163786494D01*
X224841494Y-141205494D02*
X226171494Y-141205494D01*
X223511494Y-143805494D02*
X223511494Y-161645494D01*
X223511494Y-161645494D02*
X226171494Y-161645494D01*
X226171494Y-141205494D02*
X226171494Y-142535494D01*
X226171494Y-143805494D02*
X226171494Y-161645494D01*
X223511494Y-143805494D02*
X226171494Y-143805494D01*
X200651494Y-143805494D02*
X203311494Y-143805494D01*
X203311494Y-143805494D02*
X203311494Y-161645494D01*
X200651494Y-143805494D02*
X200651494Y-161645494D01*
X200651494Y-161645494D02*
X203311494Y-161645494D01*
X201981494Y-141205494D02*
X203311494Y-141205494D01*
X203311494Y-141205494D02*
X203311494Y-142535494D01*
X231390494Y-63237494D02*
X231390494Y-61907494D01*
X233990494Y-64567494D02*
X251830494Y-64567494D01*
X251830494Y-64567494D02*
X251830494Y-61907494D01*
X231390494Y-61907494D02*
X232720494Y-61907494D01*
X233990494Y-61907494D02*
X251830494Y-61907494D01*
X233990494Y-64567494D02*
X233990494Y-61907494D01*
X233990494Y-87427494D02*
X233990494Y-84767494D01*
X233990494Y-84767494D02*
X251830494Y-84767494D01*
X233990494Y-87427494D02*
X251830494Y-87427494D01*
X251830494Y-87427494D02*
X251830494Y-84767494D01*
X231390494Y-86097494D02*
X231390494Y-84767494D01*
X231390494Y-84767494D02*
X232720494Y-84767494D01*
X225872494Y-62186494D02*
X227202494Y-62186494D01*
X224542494Y-64786494D02*
X224542494Y-82626494D01*
X224542494Y-82626494D02*
X227202494Y-82626494D01*
X227202494Y-62186494D02*
X227202494Y-63516494D01*
X227202494Y-64786494D02*
X227202494Y-82626494D01*
X224542494Y-64786494D02*
X227202494Y-64786494D01*
X56592000Y-142773000D02*
X59252000Y-142773000D01*
X59252000Y-142773000D02*
X59252000Y-160613000D01*
X56592000Y-142773000D02*
X56592000Y-160613000D01*
X56592000Y-160613000D02*
X59252000Y-160613000D01*
X57922000Y-140173000D02*
X59252000Y-140173000D01*
X59252000Y-140173000D02*
X59252000Y-141503000D01*
%TO.C,U1*%
X58278000Y-116738000D02*
X78852000Y-116738000D01*
X78852000Y-116738000D02*
X78852000Y-133248000D01*
X58278000Y-133248000D02*
X58278000Y-116738000D01*
X78852000Y-133248000D02*
X58278000Y-133248000D01*
X61931832Y-119278000D02*
G75*
G03*
X61931832Y-119278000I-1367832J0D01*
G01*
X77933832Y-119278000D02*
G75*
G03*
X77933832Y-119278000I-1367832J0D01*
G01*
%TO.C,REF\u002A\u002A*%
X86300000Y-141224000D02*
X86300000Y-139894000D01*
X88900000Y-142554000D02*
X106740000Y-142554000D01*
X106740000Y-142554000D02*
X106740000Y-139894000D01*
X86300000Y-139894000D02*
X87630000Y-139894000D01*
X88900000Y-139894000D02*
X106740000Y-139894000D01*
X88900000Y-142554000D02*
X88900000Y-139894000D01*
X88900000Y-165414000D02*
X88900000Y-162754000D01*
X88900000Y-162754000D02*
X106740000Y-162754000D01*
X88900000Y-165414000D02*
X106740000Y-165414000D01*
X106740000Y-165414000D02*
X106740000Y-162754000D01*
X86300000Y-164084000D02*
X86300000Y-162754000D01*
X86300000Y-162754000D02*
X87630000Y-162754000D01*
X80782000Y-140173000D02*
X82112000Y-140173000D01*
X79452000Y-142773000D02*
X79452000Y-160613000D01*
X79452000Y-160613000D02*
X82112000Y-160613000D01*
X82112000Y-140173000D02*
X82112000Y-141503000D01*
X82112000Y-142773000D02*
X82112000Y-160613000D01*
X79452000Y-142773000D02*
X82112000Y-142773000D01*
X87331000Y-83735000D02*
X88661000Y-83735000D01*
X87331000Y-85065000D02*
X87331000Y-83735000D01*
X107771000Y-86395000D02*
X107771000Y-83735000D01*
X89931000Y-86395000D02*
X107771000Y-86395000D01*
X89931000Y-83735000D02*
X107771000Y-83735000D01*
X89931000Y-86395000D02*
X89931000Y-83735000D01*
X89931000Y-63535000D02*
X89931000Y-60875000D01*
X89931000Y-60875000D02*
X107771000Y-60875000D01*
X87331000Y-60875000D02*
X88661000Y-60875000D01*
X107771000Y-63535000D02*
X107771000Y-60875000D01*
X89931000Y-63535000D02*
X107771000Y-63535000D01*
X87331000Y-62205000D02*
X87331000Y-60875000D01*
X81813000Y-61154000D02*
X83143000Y-61154000D01*
X80483000Y-63754000D02*
X80483000Y-81594000D01*
X80483000Y-81594000D02*
X83143000Y-81594000D01*
X83143000Y-61154000D02*
X83143000Y-62484000D01*
X83143000Y-63754000D02*
X83143000Y-81594000D01*
X80483000Y-63754000D02*
X83143000Y-63754000D01*
X58953000Y-61154000D02*
X60283000Y-61154000D01*
X57623000Y-63754000D02*
X57623000Y-81594000D01*
X57623000Y-81594000D02*
X60283000Y-81594000D01*
X60283000Y-61154000D02*
X60283000Y-62484000D01*
X60283000Y-63754000D02*
X60283000Y-81594000D01*
X57623000Y-63754000D02*
X60283000Y-63754000D01*
%TO.C,U1*%
X59309000Y-37719000D02*
X79883000Y-37719000D01*
X79883000Y-37719000D02*
X79883000Y-54229000D01*
X59309000Y-54229000D02*
X59309000Y-37719000D01*
X79883000Y-54229000D02*
X59309000Y-54229000D01*
X62962832Y-40259000D02*
G75*
G03*
X62962832Y-40259000I-1367832J0D01*
G01*
X78964832Y-40259000D02*
G75*
G03*
X78964832Y-40259000I-1367832J0D01*
G01*
%TD*%
M02*
