%TF.GenerationSoftware,KiCad,Pcbnew,(6.0.5)*%
%TF.CreationDate,2022-09-07T10:03:09+07:00*%
%TF.ProjectId,test1,74657374-312e-46b6-9963-61645f706362,rev?*%
%TF.SameCoordinates,Original*%
%TF.FileFunction,Copper,L1,Top*%
%TF.FilePolarity,Positive*%
%FSLAX46Y46*%
G04 Gerber Fmt 4.6, Leading zero omitted, Abs format (unit mm)*
G04 Created by KiCad (PCBNEW (6.0.5)) date 2022-09-07 10:03:09*
%MOMM*%
%LPD*%
G01*
G04 APERTURE LIST*
%TA.AperFunction,ComponentPad*%
%ADD10R,1.700000X1.700000*%
%TD*%
%TA.AperFunction,ComponentPad*%
%ADD11O,2.000000X3.000000*%
%TD*%
%TA.AperFunction,ComponentPad*%
%ADD12C,2.000000*%
%TD*%
%TA.AperFunction,ComponentPad*%
%ADD13O,1.700000X1.700000*%
%TD*%
%TA.AperFunction,ComponentPad*%
%ADD14O,3.000000X2.000000*%
%TD*%
%TA.AperFunction,Conductor*%
%ADD15C,1.000000*%
%TD*%
G04 APERTURE END LIST*
D10*
%TO.P,REF\u002A\u002A,1*%
%TO.N,N/C*%
X144931500Y-71754500D03*
D11*
%TO.P,REF\u002A\u002A,2*%
X147471500Y-71754500D03*
%TO.P,REF\u002A\u002A,3*%
X150011500Y-71754500D03*
%TO.P,REF\u002A\u002A,4*%
X152551500Y-71754500D03*
%TO.P,REF\u002A\u002A,5*%
X155091500Y-71754500D03*
%TO.P,REF\u002A\u002A,6*%
X157631500Y-71754500D03*
%TO.P,REF\u002A\u002A,7*%
%TO.N,GND*%
X160171500Y-71754500D03*
%TO.P,REF\u002A\u002A,8*%
%TO.N,N/C*%
X162711500Y-71754500D03*
%TD*%
D10*
%TO.P,REF\u002A\u002A,1*%
%TO.N,N/C*%
X144931500Y-94614500D03*
D12*
%TO.P,REF\u002A\u002A,2*%
X147471500Y-94614500D03*
D13*
%TO.P,REF\u002A\u002A,3*%
X150011500Y-94614500D03*
%TO.P,REF\u002A\u002A,4*%
X152551500Y-94614500D03*
%TO.P,REF\u002A\u002A,5*%
X155091500Y-94614500D03*
%TO.P,REF\u002A\u002A,6*%
X157631500Y-94614500D03*
%TO.P,REF\u002A\u002A,7*%
X160171500Y-94614500D03*
%TO.P,REF\u002A\u002A,8*%
X162711500Y-94614500D03*
%TD*%
D10*
%TO.P,REF\u002A\u002A,1*%
%TO.N,N/C*%
X138083500Y-72033500D03*
D14*
%TO.P,REF\u002A\u002A,2*%
X138083500Y-74573500D03*
%TO.P,REF\u002A\u002A,3*%
%TO.N,Net-(U1-Pad3)*%
X138083500Y-77113500D03*
%TO.P,REF\u002A\u002A,4*%
%TO.N,Net-(U1-Pad4)*%
X138083500Y-79653500D03*
%TO.P,REF\u002A\u002A,5*%
%TO.N,N/C*%
X138083500Y-82193500D03*
%TO.P,REF\u002A\u002A,6*%
X138083500Y-84733500D03*
%TO.P,REF\u002A\u002A,7*%
%TO.N,GND*%
X138083500Y-87273500D03*
%TO.P,REF\u002A\u002A,8*%
%TO.N,N/C*%
X138083500Y-89813500D03*
%TD*%
D10*
%TO.P,REF\u002A\u002A,1*%
%TO.N,N/C*%
X115223500Y-72033500D03*
D14*
%TO.P,REF\u002A\u002A,2*%
X115223500Y-74573500D03*
%TO.P,REF\u002A\u002A,3*%
X115223500Y-77113500D03*
%TO.P,REF\u002A\u002A,4*%
X115223500Y-79653500D03*
%TO.P,REF\u002A\u002A,5*%
X115223500Y-82193500D03*
%TO.P,REF\u002A\u002A,6*%
X115223500Y-84733500D03*
%TO.P,REF\u002A\u002A,7*%
X115223500Y-87273500D03*
%TO.P,REF\u002A\u002A,8*%
%TO.N,3v3*%
X115223500Y-89813500D03*
%TD*%
D11*
%TO.P,U1,1,VCC*%
%TO.N,3v3*%
X117103500Y-62508500D03*
%TO.P,U1,2,GND*%
%TO.N,GND*%
X119643500Y-62508500D03*
%TO.P,U1,3,SCL*%
%TO.N,Net-(U1-Pad3)*%
X122183500Y-62508500D03*
%TO.P,U1,4,SDA*%
%TO.N,Net-(U1-Pad4)*%
X124723500Y-62508500D03*
%TO.P,U1,5,XDA*%
%TO.N,unconnected-(U1-Pad5)*%
X127263500Y-62508500D03*
%TO.P,U1,6,XCL*%
%TO.N,unconnected-(U1-Pad6)*%
X129803500Y-62508500D03*
%TO.P,U1,7,ADD*%
%TO.N,unconnected-(U1-Pad7)*%
X132343500Y-62508500D03*
%TO.P,U1,8,INT*%
%TO.N,unconnected-(U1-Pad8)*%
X134883500Y-62508500D03*
%TD*%
D15*
%TO.N,*%
X162711500Y-73254500D02*
X146152500Y-89813500D01*
X146152500Y-89813500D02*
X138083500Y-89813500D01*
X162711500Y-71754500D02*
X162711500Y-73254500D01*
%TO.N,3v3*%
X117373011Y-62778011D02*
X117373011Y-88163858D01*
X115723369Y-89813500D02*
X115223500Y-89813500D01*
X117103500Y-62508500D02*
X117373011Y-62778011D01*
X117373011Y-88163858D02*
X115723369Y-89813500D01*
%TO.N,GND*%
X119643500Y-63586130D02*
X119792020Y-63734650D01*
X119643500Y-62508500D02*
X119643500Y-63586130D01*
X160171500Y-71754500D02*
X160171500Y-72966512D01*
X131200500Y-87273500D02*
X138083500Y-87273500D01*
X119792020Y-75865020D02*
X131200500Y-87273500D01*
X160171500Y-72966512D02*
X145864512Y-87273500D01*
X145864512Y-87273500D02*
X138083500Y-87273500D01*
X119792020Y-63734650D02*
X119792020Y-75865020D01*
%TO.N,Net-(U1-Pad3)*%
X122183500Y-62508500D02*
X122183500Y-74700500D01*
X122183500Y-74700500D02*
X124596500Y-77113500D01*
X124596500Y-77113500D02*
X138083500Y-77113500D01*
%TO.N,Net-(U1-Pad4)*%
X124723500Y-62508500D02*
X124723500Y-63586130D01*
X139285581Y-79653500D02*
X138083500Y-79653500D01*
X124723500Y-63586130D02*
X126820870Y-65683500D01*
X126820870Y-65683500D02*
X136026500Y-65683500D01*
X140598500Y-78340581D02*
X139285581Y-79653500D01*
X140598500Y-70255500D02*
X140598500Y-78340581D01*
X136026500Y-65683500D02*
X140598500Y-70255500D01*
%TD*%
M02*
